<svg width="485" height="338" viewBox="0 0 485 338" fill="none" xmlns="http://www.w3.org/2000/svg">
<path d="M356.756 140.695C356.65 139.748 356.535 138.804 356.411 137.863L357.356 137.737C357.482 138.685 357.597 139.635 357.704 140.589L356.756 140.695Z" fill="#CCCCCC"/>
<path d="M342.011 92.2099C341.572 91.3657 341.124 90.5267 340.669 89.693L341.505 89.2349C341.964 90.0744 342.415 90.9191 342.857 91.769L342.011 92.2099Z" fill="#CCCCCC"/>
<path d="M402.912 100.425H401.901C401.92 100.63 401.93 100.84 401.93 101.055V128.732C401.927 130.882 401.072 132.944 399.552 134.465C398.033 135.985 395.973 136.841 393.824 136.844H298.973V137.169C298.973 137.379 298.982 137.589 298.997 137.799C299.156 140.088 300.178 142.232 301.854 143.798C303.531 145.363 305.739 146.234 308.032 146.235H402.912C405.314 146.233 407.617 145.277 409.315 143.577C411.014 141.877 411.969 139.573 411.971 137.169V109.491C411.969 107.087 411.014 104.783 409.315 103.083C407.617 101.383 405.314 100.427 402.912 100.425Z" fill="#F2F2F2"/>
<path d="M402.86 100.425C402.7 98.1355 401.679 95.9917 400.002 94.426C398.325 92.8603 396.118 91.9892 393.824 91.9883H298.944C296.542 91.9905 294.239 92.9464 292.541 94.6462C290.843 96.3461 289.887 98.651 289.885 101.055V128.732C289.887 131.136 290.843 133.441 292.541 135.141C294.239 136.841 296.542 137.797 298.944 137.799H393.824C396.226 137.797 398.529 136.841 400.228 135.141C401.926 133.441 402.881 131.136 402.883 128.732V101.055C402.883 100.845 402.874 100.635 402.86 100.425ZM401.93 128.732C401.927 130.883 401.072 132.944 399.552 134.465C398.033 135.986 395.973 136.841 393.824 136.844H298.944C296.795 136.841 294.736 135.986 293.216 134.465C291.697 132.944 290.842 130.883 290.839 128.732V101.055C290.842 98.9044 291.697 96.8427 293.216 95.322C294.736 93.8014 296.795 92.9457 298.944 92.9427H393.824C395.864 92.9455 397.827 93.7171 399.324 95.1036C400.821 96.4902 401.741 98.3901 401.901 100.425C401.92 100.63 401.93 100.84 401.93 101.055V128.732Z" fill="#3F3D56"/>
<path d="M369.747 126.825H323.022C322.011 126.825 321.041 126.422 320.325 125.706C319.61 124.99 319.208 124.019 319.208 123.007C319.208 121.995 319.61 121.024 320.325 120.308C321.041 119.592 322.011 119.189 323.022 119.189H369.747C370.759 119.189 371.729 119.592 372.444 120.308C373.16 121.024 373.562 121.995 373.562 123.007C373.562 124.019 373.16 124.99 372.444 125.706C371.729 126.422 370.759 126.825 369.747 126.825Z" fill="#CCCCCC"/>
<path d="M355.444 110.6H323.022C322.011 110.6 321.041 110.198 320.325 109.482C319.61 108.766 319.208 107.795 319.208 106.782C319.208 105.77 319.61 104.799 320.325 104.083C321.041 103.367 322.011 102.965 323.022 102.965H355.444C356.455 102.965 357.426 103.367 358.141 104.083C358.856 104.799 359.258 105.77 359.258 106.782C359.258 107.795 358.856 108.766 358.141 109.482C357.426 110.198 356.455 110.6 355.444 110.6Z" fill="#CCCCCC"/>
<path opacity="0.1" d="M283.325 53.1592C252.467 52.0856 223.078 42.117 195.01 31.2084C166.941 20.2998 139.15 8.21251 109.031 2.45757C89.6594 -1.25976 67.508 -1.78467 51.8981 8.60858C36.8793 18.6296 32.0257 35.8801 29.4129 51.8995C27.4533 63.9581 26.2947 76.6419 31.6776 87.9275C35.4108 95.763 42.0429 102.348 46.6296 109.854C62.5828 135.966 51.3068 168.167 34.0138 193.664C25.9085 205.622 16.4968 217.046 10.2366 229.768C3.97639 242.49 1.0823 257.087 6.5558 270.077C11.9864 282.961 24.9216 292.619 38.9295 299.419C67.3888 313.229 100.912 317.185 133.629 319.423C206.014 324.381 278.791 322.234 351.367 320.086C378.229 319.289 405.205 318.483 431.629 314.327C446.304 312.017 461.456 308.352 472.108 299.534C485.629 288.305 488.981 269.289 479.922 255.212C464.722 231.596 422.708 225.726 412.071 200.383C406.221 186.434 412.228 170.892 420.725 157.955C438.957 130.197 469.514 105.851 471.126 74.1223C472.232 52.3337 457.542 30.5117 434.828 20.1996C411.017 9.39117 378.005 10.7512 360.449 28.6411C342.351 47.0178 310.568 54.1041 283.325 53.1592Z" fill="#682AE9"/>
<g opacity="0.1">
<path opacity="0.1" d="M41.1704 156.691C41.1704 156.691 5.53548 141.688 0.848681 168.74C0.848681 168.74 -1.58769 172.958 1.80225 176.442C1.80225 176.442 2.53173 174.571 5.97412 176.504C7.20364 177.184 8.50967 177.716 9.86469 178.088C11.6946 178.593 13.6391 178.49 15.4049 177.792C15.4049 177.792 27.1291 177.158 36.989 161.806C36.989 161.806 41.2181 159.191 41.4279 158.208L34.3619 158.686C34.3619 158.686 34.9054 163.863 31.978 166.97C31.978 166.97 34.5717 158.934 33.3273 158.709C33.0746 158.662 29.5941 159.12 29.5941 159.12C29.5941 159.12 30.4952 168.124 25.7798 172.782C25.7798 172.782 30.1567 163.624 28.2543 159.282L23.0383 160.289C23.0383 160.289 24.4686 169.761 19.3098 175.268C19.3098 175.268 23.5532 165.533 21.913 160.59L16.9211 162.269C16.9211 162.269 18.1226 171.532 13.8077 176.108C13.8077 176.108 17.5743 164.364 15.8007 162.746C15.8007 162.746 11.3093 164.569 10.351 165.61C10.351 165.61 11.0614 172.29 8.3199 174.7C8.3199 174.7 10.003 166.588 9.16858 166.254C9.16858 166.254 3.95255 170.186 2.36009 173.579C2.36009 173.579 4.34352 168.396 8.51539 165.466C8.51539 165.466 5.01102 164.875 2.31718 166.34C2.31718 166.34 4.11943 162.899 9.77887 164.531C9.77887 164.531 13.9698 161.625 14.8089 161.668C14.8089 161.668 9.45465 159.282 5.58793 159.578C5.58793 159.578 9.73596 157.192 16.1153 161.176L21.0977 159.377C21.0977 159.377 14.1844 155.832 10.7229 155.846C10.7229 155.846 15.3286 154.062 22.3898 159.024L27.4914 157.984C27.4914 157.984 21.77 154.477 17.9128 153.661C17.9128 153.661 22.5376 152.926 28.9647 157.741L32.45 157.45C32.45 157.45 28.2304 154.959 26.9527 154.353C25.6749 153.747 25.7321 153.355 25.7321 153.355C28.7717 153.884 31.6045 155.249 33.9137 157.297C33.9137 157.297 41.1418 157.135 41.1704 156.691Z" fill="#682AE9"/>
</g>
<g opacity="0.1">
<path opacity="0.1" d="M39.864 129.796C39.864 129.796 27.2244 100.559 9.04937 113.968C9.04937 113.968 5.20649 115.085 5.23509 119.074C5.23509 119.074 6.7322 118.377 7.681 121.493C8.0289 122.599 8.50918 123.658 9.11136 124.647C9.90723 125.993 11.1213 127.04 12.568 127.63C12.568 127.63 19.8962 133.938 34.5002 130.441C34.5002 130.441 38.5051 131.295 39.187 130.837L34.7242 127.081C34.7242 127.081 32.0972 130.469 28.5785 130.631C28.5785 130.631 34.6956 127.339 34.0854 126.494C33.9614 126.322 31.6299 124.614 31.6299 124.614C31.6299 124.614 27.0432 130.474 21.6174 130.565C21.6174 130.565 29.4319 127.616 30.7717 123.956L27.1005 121.57C27.1005 121.57 22.5519 128.007 16.3585 128.341C16.3585 128.341 24.4209 124.977 26.2613 121.102L22.3374 119.255C22.3374 119.255 17.7793 125.459 12.6253 125.692C12.6253 125.692 21.5507 120.863 21.4124 118.892C21.4124 118.892 17.7078 117.413 16.5301 117.499C16.5301 117.499 13.1593 121.865 10.1507 121.741C10.1507 121.741 15.772 117.881 15.4669 117.208C15.4669 117.208 10.1269 116.569 7.25189 117.685C7.25189 117.685 11.3809 115.738 15.5241 116.378C15.5241 116.378 13.7791 114.025 11.3522 113.371C11.3522 113.371 14.3846 112.355 16.8162 116.545C16.8162 116.545 20.9547 117.213 21.441 117.709C21.441 117.709 19.6245 113.228 17.15 111.21C17.15 111.21 20.9642 112.164 22.4899 118.162L26.4759 119.933C26.4759 119.933 24.3875 113.882 22.3183 111.921C22.3183 111.921 26.0706 113.486 27.4437 120.462L31.0673 122.748C31.0673 122.748 29.6656 117.404 27.8395 114.717C27.8395 114.717 31.0053 116.922 32.0781 123.445L34.319 125.258C34.319 125.258 33.2271 121.374 32.8123 120.286C32.3975 119.198 32.655 118.997 32.655 118.997C34.1611 121.044 35.0675 123.469 35.2725 126.003C35.2725 126.003 39.5827 130.04 39.864 129.796Z" fill="#682AE9"/>
</g>
<path d="M444.969 318.359C444.492 316.631 444.016 314.88 443.062 313.377C442.177 312.101 441.125 310.95 439.934 309.955C436.478 306.811 432.229 303.618 427.648 304.415C426.227 304.726 424.854 305.227 423.566 305.904C422.899 306.214 422.226 306.524 421.54 306.787C419.606 307.596 417.468 307.782 415.423 307.321C414.374 307.04 413.396 306.534 412.362 306.219C411.869 306.072 411.365 305.963 410.855 305.895C411.854 305.442 412.825 304.93 413.764 304.363C418.908 301.18 423.013 295.454 422.436 289.393C422.246 287.341 421.54 285.38 420.844 283.447C420.234 281.758 419.622 280.067 419.008 278.375C418.217 276.175 417.401 273.937 415.952 272.109C414.34 270.077 412.052 268.697 409.687 267.667C404.604 265.457 399.05 264.679 393.567 263.925L393.186 263.873V204.587C393.189 204.083 393.092 203.584 392.902 203.118C392.712 202.652 392.431 202.229 392.077 201.872C391.722 201.515 391.301 201.231 390.836 201.038C390.372 200.845 389.874 200.745 389.371 200.745H382.157C381.84 198.798 381.522 196.853 381.204 194.909C380.293 189.369 379.354 183.719 376.803 178.728C375.134 175.459 372.474 172.348 368.893 171.703C368.188 171.637 367.496 171.477 366.834 171.226C365.785 170.711 365.213 169.565 364.402 168.716C362.323 166.535 358.943 166.502 356.154 165.376C353.693 164.397 351.681 162.551 349.44 161.133C347.2 159.716 344.41 158.705 341.926 159.63C341.926 159.812 341.893 159.988 341.874 160.17L340.281 159.454C338.565 158.662 336.81 157.841 335.433 156.533C333.659 154.858 332.715 152.649 331.981 150.292C331.904 150.044 331.833 149.814 331.761 149.552C334.808 146.436 336.871 142.491 337.692 138.209C337.821 138.624 337.955 139.044 338.083 139.464C338.201 139.891 338.36 140.305 338.56 140.7C338.626 140.831 338.701 140.957 338.784 141.077C338.942 141.311 339.138 141.516 339.366 141.683C339.592 141.848 339.856 141.951 340.134 141.984C340.267 142.003 340.401 142.003 340.534 141.984C340.894 141.908 341.23 141.742 341.509 141.503C341.789 141.264 342.005 140.958 342.136 140.614C342.212 140.427 342.268 140.231 342.303 140.032C342.321 139.912 342.333 139.791 342.336 139.669C342.336 139.631 342.336 139.593 342.336 139.555C342.336 139.517 342.336 139.388 342.336 139.307C342.336 139.226 342.336 139.216 342.336 139.173C342.336 139.13 342.336 139.011 342.336 138.935V138.81C342.336 138.715 342.308 138.62 342.289 138.529C342.27 138.438 342.289 138.476 342.289 138.453C342.265 138.328 342.236 138.209 342.212 138.085C342.21 138.058 342.21 138.031 342.212 138.004L342.141 137.703L342.098 137.522V137.474C342.05 137.288 342.007 137.097 341.965 136.906C341.618 135.249 341.529 133.547 341.702 131.863C341.99 129.391 342.445 126.942 343.066 124.533L343.166 124.099L343.28 123.593C343.357 123.249 343.428 122.906 343.5 122.562C343.562 122.271 343.619 121.975 343.671 121.679C343.724 121.383 343.762 121.159 343.8 120.897C343.8 120.863 343.8 120.835 343.8 120.801C344.091 119.023 344.17 117.216 344.034 115.418C343.81 112.923 343.037 110.561 341.34 108.676C340.143 107.344 338.57 106.361 337.459 104.963C336.415 103.651 335.828 102.038 334.751 100.754C331.771 97.1945 324.128 94.4506 319.436 93.9735C314.063 93.4295 305.381 94.8038 301.052 97.9819C299.45 99.1558 298.353 100.845 297.237 102.453C295.187 105.44 292.856 108.418 289.571 110.088C288.326 110.718 286.905 111.195 286.081 112.293C285.582 113.037 285.256 113.883 285.127 114.769C284.493 117.879 284.164 121.044 284.145 124.218C284.074 125.606 284.251 126.996 284.669 128.322C284.736 128.503 284.817 128.689 284.903 128.866C284.979 129.023 285.065 129.181 285.156 129.343L285.213 129.443C285.788 130.27 286.3 131.139 286.743 132.044C286.848 132.299 286.925 132.564 286.972 132.836C287.054 133.537 287.009 134.246 286.839 134.931C286.839 135.036 286.8 135.136 286.777 135.236L286.734 135.456C286.734 135.523 286.734 135.594 286.696 135.661C286.657 135.868 286.624 136.073 286.595 136.277C286.595 136.42 286.567 136.568 286.562 136.716C286.528 137.307 286.641 137.897 286.891 138.433C286.954 138.561 287.029 138.683 287.115 138.796C287.286 139.025 287.506 139.212 287.759 139.345C288.327 139.559 288.92 139.7 289.523 139.765C291.306 140.166 292.422 141.53 293.146 143.205C293.307 143.581 293.449 143.965 293.571 144.355C293.868 145.335 294.091 146.335 294.238 147.347C295.049 147.304 295.521 146.589 295.807 145.806C295.896 145.548 295.971 145.285 296.031 145.019C296.141 144.518 296.25 144.017 296.365 143.516C298.247 147.512 301.278 150.855 305.071 153.117C305.204 153.508 305.333 153.904 305.452 154.305C306.077 156.467 306.377 158.733 305.295 160.623C304.523 161.964 303.221 162.794 301.772 163.367C301.563 163.086 301.294 162.856 300.985 162.694C299.726 162.064 298.219 162.832 297.171 163.772C295.263 165.5 293.709 167.976 291.196 168.544C290.291 168.754 289.289 168.711 288.531 169.265C288.032 169.735 287.615 170.285 287.296 170.892C286.751 171.675 286.019 172.308 285.166 172.733C284.313 173.158 283.366 173.362 282.414 173.326C281.542 173.283 280.507 173.082 279.911 173.722C279.468 174.199 279.434 174.958 278.957 175.411C278.314 176.041 277.27 175.731 276.373 175.693C275.726 175.694 275.085 175.828 274.491 176.086C273.896 176.343 273.361 176.719 272.917 177.191C272.86 175.266 272.124 173.423 270.838 171.99C269.55 170.663 267.762 169.981 266.237 168.94C262.422 166.344 260.515 161.782 258.527 157.602C256.539 153.422 253.917 149.013 249.578 147.491C248.581 147.137 247.194 147.109 246.746 148.078C246.593 148.482 246.568 148.923 246.674 149.342C247.094 151.566 248.677 153.35 250.045 155.14C252.348 158.156 254.279 161.845 253.721 165.614C253.068 170.076 249.096 173.54 248.62 178.021C248.41 179.997 248.91 181.982 248.906 183.967C248.906 185.208 248.71 186.463 248.977 187.67C249.261 188.587 249.597 189.488 249.983 190.366C250.413 191.808 250.634 193.304 250.641 194.809C250.978 201.133 251.313 207.459 251.647 213.787C251.9 218.506 250.87 223.164 249.831 227.807C248.542 230.559 247.542 233.438 246.846 236.396C245.673 241.564 245.64 247.071 247.323 252.101C248.224 254.835 249.606 257.398 250.346 260.18C250.346 260.242 250.374 260.299 250.388 260.356C250.46 260.948 250.541 261.54 250.651 262.126C250.786 262.805 250.963 263.474 251.18 264.131C251.396 265.262 251.748 266.363 252.229 267.409C252.897 268.738 253.879 269.885 255.09 270.749C254.403 272.095 253.292 273.178 252.553 274.495C251.266 276.776 251.213 279.577 251.681 282.164C252.582 287.155 255.275 291.617 258.832 295.244C258.673 295.234 258.514 295.234 258.355 295.244C257.192 295.372 256.075 295.773 255.094 296.413C247.566 300.817 243.26 310.251 244.834 318.888C245.144 320.578 245.683 322.286 246.808 323.57C247.745 324.592 248.949 325.331 250.284 325.703C251.117 325.954 251.976 326.114 252.844 326.18C258.713 326.657 264.396 323.932 270.28 323.703C272.231 323.673 274.181 323.763 276.121 323.975C278.953 324.211 281.791 324.36 284.636 324.424C289.256 324.534 291.859 323.303 294.81 319.843C295.536 318.984 296.14 318.031 296.608 317.008C299.116 316.865 301.886 316.646 303.893 316.479L303.922 316.76C304.032 317.715 304.198 318.812 304.961 319.418C305.392 319.71 305.879 319.909 306.392 320C311.212 321.189 316.089 322.386 321.048 322.386C323.377 322.338 325.701 322.158 328.009 321.847L336.734 320.84C339.273 321.167 341.779 321.713 344.224 322.472C346.742 323.331 349.097 324.605 351.557 325.607C357.279 327.931 363.439 328.762 369.537 329.573C370.576 329.711 371.768 329.807 372.541 329.096C373.532 328.141 373.199 326.543 372.922 325.207C372.808 324.663 372.722 324.109 372.65 323.555C376.766 324.638 380.793 326.037 384.694 327.74L385.381 328.041C385.576 329.081 386.539 329.916 387.459 331.038C387.761 331.51 388.115 331.947 388.513 332.341C388.967 332.64 389.485 332.828 390.024 332.889C396.468 334.09 403.047 334.387 409.573 333.772C410.907 333.59 412.257 333.544 413.601 333.634C414.588 333.768 415.562 333.988 416.51 334.292L422.031 335.872C426.098 337.041 430.27 338.22 434.489 337.957C435.346 337.901 436.198 337.778 437.035 337.59C440.373 336.817 443.486 334.946 445.088 331.94C447.239 327.85 446.194 322.825 444.969 318.359ZM283.024 243.721C282.854 245.79 282.315 247.812 281.432 249.691C280.841 250.889 280.078 251.991 279.525 253.193C279 254.281 278.609 256.338 278.376 258.595C278.09 258.548 277.799 258.505 277.513 258.471C277.937 256.982 278.257 255.455 278.681 253.962C279.687 250.411 281.341 247.057 283.024 243.721Z" fill="url(#paint0_linear)"/>
<path d="M290.372 317.113C289.366 314.823 288.412 312.189 289.418 309.898C290.075 308.549 291.203 307.488 292.589 306.916C293.96 306.356 295.406 305.999 296.88 305.856C301.507 305.249 306.189 305.185 310.83 305.666C311.169 308.347 310.454 311.067 309.839 313.659C309.281 316.044 308.961 316.398 306.501 316.522C304.909 316.608 290.748 317.958 290.372 317.113Z" fill="#FBBEBE"/>
<path d="M332.829 301.662C370.484 301.662 401.01 293.116 401.01 282.574C401.01 272.032 370.484 263.486 332.829 263.486C295.174 263.486 264.649 272.032 264.649 282.574C264.649 293.116 295.174 301.662 332.829 301.662Z" fill="#464353"/>
<path opacity="0.1" d="M332.829 301.662C370.484 301.662 401.01 293.116 401.01 282.574C401.01 272.032 370.484 263.486 332.829 263.486C295.174 263.486 264.649 272.032 264.649 282.574C264.649 293.116 295.174 301.662 332.829 301.662Z" fill="black"/>
<path d="M345.054 181.81C342.717 186.33 338.836 189.859 334.117 191.755C331.338 192.768 328.414 193.326 325.458 193.406C322.221 193.554 318.917 193.344 315.875 192.237C311.794 190.758 308.404 187.732 305.862 184.206C303.321 180.679 301.571 176.652 300.05 172.591C299.249 170.477 298.486 168.225 298.863 165.991C301.319 165.433 304.008 164.612 305.276 162.431C306.358 160.561 306.058 158.318 305.433 156.18C305.257 155.574 305.052 154.973 304.847 154.395C304.37 153.012 302.725 150.382 303.869 149.199C304.599 148.45 307.655 148.068 308.709 147.581C311.956 146.083 314.95 143.916 318.516 143.205C321.601 142.59 324.786 143.167 327.866 143.807C328.275 143.866 328.667 144.007 329.02 144.222C329.422 144.561 329.72 145.008 329.878 145.51C330.755 147.648 331.27 150.01 331.976 152.239C332.71 154.572 333.654 156.762 335.423 158.418C336.801 159.711 338.556 160.523 340.272 161.31L344.496 163.247C345.248 163.529 345.929 163.97 346.494 164.541C347.046 165.301 347.377 166.199 347.448 167.137C348.204 172.158 347.367 177.29 345.054 181.81Z" fill="#FBBEBE"/>
<path opacity="0.1" d="M331.957 152.239C328.594 155.739 324.166 158.025 319.367 158.739C314.567 159.452 309.667 158.552 305.433 156.18C305.257 155.574 305.052 154.973 304.847 154.395C304.37 153.012 302.725 150.382 303.869 149.199C304.599 148.45 307.655 148.068 308.709 147.581C311.956 146.083 314.95 143.916 318.516 143.205C321.601 142.59 324.786 143.167 327.866 143.807C328.275 143.866 328.667 144.007 329.02 144.222C329.422 144.561 329.72 145.008 329.878 145.51C330.736 147.648 331.251 150.01 331.957 152.239Z" fill="black"/>
<path d="M316.142 158.027C328.255 158.027 338.074 148.199 338.074 136.076C338.074 123.953 328.255 114.125 316.142 114.125C304.029 114.125 294.21 123.953 294.21 136.076C294.21 148.199 304.029 158.027 316.142 158.027Z" fill="#FBBEBE"/>
<path d="M382.963 207.316L381.161 196.388C380.25 190.905 379.311 185.317 376.765 180.379C375.092 177.143 372.436 174.061 368.855 173.421C368.15 173.358 367.457 173.198 366.795 172.944C365.747 172.438 365.174 171.302 364.369 170.462C362.29 168.306 358.905 168.272 356.12 167.175C353.66 166.22 351.648 164.383 349.407 162.98C347.166 161.577 344.377 160.594 341.898 161.491C341.497 165.762 341.073 170.128 339.261 174.018C338.082 176.549 336.352 178.785 334.198 180.562C332.045 182.339 329.521 183.611 326.813 184.286C324.105 184.962 321.28 185.022 318.545 184.464C315.81 183.906 313.235 182.743 311.007 181.061C306.759 177.859 304.036 172.92 302.768 167.752C302.458 166.492 302.105 165.046 300.947 164.469C299.693 163.839 298.186 164.603 297.132 165.528C295.201 167.241 293.666 169.694 291.158 170.272C290.252 170.482 289.251 170.439 288.498 170.987C287.997 171.45 287.578 171.994 287.258 172.596C286.709 173.372 285.976 173.999 285.125 174.42C284.273 174.842 283.33 175.045 282.381 175.01C281.508 174.967 280.474 174.767 279.878 175.401C279.434 175.879 279.401 176.623 278.924 177.067C278.28 177.692 277.236 177.387 276.34 177.353C274.642 177.282 273.064 178.37 272.092 179.739C271.119 181.109 270.661 182.803 270.185 184.444C275.396 196.059 280.164 207.688 285.375 219.303C285.619 219.741 285.749 220.233 285.752 220.735C285.647 221.255 285.425 221.745 285.103 222.166C282.548 226.275 282.629 231.443 282.91 236.272C283.191 241.101 283.534 246.202 281.379 250.531C280.793 251.719 280.03 252.807 279.472 253.995C278.166 256.686 277.694 265.295 278.457 268.187H386.21C384.155 262.532 384.937 251.184 385.366 245.181C385.667 240.982 384.889 236.787 384.556 232.588C383.855 224.013 384.379 215.877 382.963 207.316Z" fill="#F86D70"/>
<path d="M388.48 264.846C390.067 264.24 391.817 264.46 393.519 264.689C398.998 265.438 404.557 266.206 409.635 268.397C412.019 269.418 414.288 270.783 415.9 272.792C417.33 274.6 418.164 276.814 418.956 278.995L420.787 284.001C421.483 285.91 422.188 287.857 422.384 289.885C422.956 295.893 418.851 301.557 413.687 304.678C408.524 307.798 402.445 308.91 396.523 310.075C390.601 311.239 384.656 312.527 378.758 313.892C376.007 314.607 373.216 315.156 370.4 315.539C364.087 316.254 357.489 315.2 351.491 317.29C349.107 318.125 346.766 319.366 344.291 319.943C342.65 320.303 340.99 320.571 339.318 320.745L327.966 322.043C325.658 322.352 323.334 322.53 321.005 322.577C316.046 322.577 311.169 321.403 306.353 320.229C305.841 320.139 305.354 319.943 304.923 319.652C304.16 319.051 303.993 317.987 303.884 317.023C303.397 312.757 302.971 308.486 302.606 304.21C302.491 302.821 302.406 301.318 303.164 300.149C304.117 298.718 305.977 298.269 307.674 297.992C314.871 296.814 322.163 296.307 329.454 296.479C332.224 293.707 336.791 293.693 340.42 292.185C341.755 291.571 343.046 290.868 344.286 290.08C350.774 286.292 358.024 283.998 365.508 283.366C366.974 283.321 368.431 283.113 369.852 282.746C372.66 281.873 375.22 279.496 378.105 280.078C378.462 279.091 378.71 277.769 379.535 277.091C379.945 276.743 380.451 276.509 380.827 276.137C381.623 275.33 381.695 274.061 381.576 272.935C381.457 271.809 381.19 270.654 381.48 269.556C381.601 269.141 381.78 268.744 382.01 268.378C383.445 265.868 385.605 264.608 388.48 264.846Z" fill="#464353"/>
<path opacity="0.05" d="M388.48 264.846C390.067 264.24 391.817 264.46 393.519 264.689C398.998 265.438 404.557 266.206 409.635 268.397C412.019 269.418 414.288 270.783 415.9 272.792C417.33 274.6 418.164 276.814 418.956 278.995L420.787 284.001C421.483 285.91 422.188 287.857 422.384 289.885C422.956 295.893 418.851 301.557 413.687 304.678C408.524 307.798 402.445 308.91 396.523 310.075C390.601 311.239 384.656 312.527 378.758 313.892C376.007 314.607 373.216 315.156 370.4 315.539C364.087 316.254 357.489 315.2 351.491 317.29C349.107 318.125 346.766 319.366 344.291 319.943C342.65 320.303 340.99 320.571 339.318 320.745L327.966 322.043C325.658 322.352 323.334 322.53 321.005 322.577C316.046 322.577 311.169 321.403 306.353 320.229C305.841 320.139 305.354 319.943 304.923 319.652C304.16 319.051 303.993 317.987 303.884 317.023C303.397 312.757 302.971 308.486 302.606 304.21C302.491 302.821 302.406 301.318 303.164 300.149C304.117 298.718 305.977 298.269 307.674 297.992C314.871 296.814 322.163 296.307 329.454 296.479C332.224 293.707 336.791 293.693 340.42 292.185C341.755 291.571 343.046 290.868 344.286 290.08C350.774 286.292 358.024 283.998 365.508 283.366C366.974 283.321 368.431 283.113 369.852 282.746C372.66 281.873 375.22 279.496 378.105 280.078C378.462 279.091 378.71 277.769 379.535 277.091C379.945 276.743 380.451 276.509 380.827 276.137C381.623 275.33 381.695 274.061 381.576 272.935C381.457 271.809 381.19 270.654 381.48 269.556C381.601 269.141 381.78 268.744 382.01 268.378C383.445 265.868 385.605 264.608 388.48 264.846Z" fill="black"/>
<path d="M294.758 320.062C291.807 323.484 289.208 324.705 284.588 324.596C281.747 324.529 278.908 324.381 276.073 324.152C274.135 323.942 272.186 323.851 270.237 323.88C264.353 324.109 258.675 326.805 252.806 326.333C251.938 326.264 251.08 326.104 250.245 325.855C248.921 325.486 247.725 324.758 246.789 323.751C245.663 322.477 245.125 320.788 244.815 319.117C243.246 310.557 247.547 301.232 255.075 296.875C256.057 296.241 257.174 295.844 258.336 295.716C259.476 295.711 260.603 295.959 261.636 296.441L261.707 296.47C264.766 297.729 267.544 299.585 269.879 301.929C270.234 302.335 270.657 302.676 271.129 302.936C271.6 303.114 272.098 303.208 272.602 303.213L278.867 303.609C279.928 303.64 280.983 303.786 282.014 304.043C283.149 304.44 284.255 304.918 285.322 305.474C288.693 306.982 292.431 307.383 296.074 307.965C296.425 307.985 296.76 308.119 297.028 308.347C297.173 308.528 297.274 308.741 297.323 308.968C297.832 310.886 297.864 312.9 297.417 314.834C296.97 316.767 296.057 318.562 294.758 320.062Z" fill="#3F3D56"/>
<path opacity="0.1" d="M261.688 296.47C259.258 298.793 257.149 301.431 255.418 304.315C252.642 309.074 250.897 314.364 250.298 319.843C250.071 321.841 250.053 323.858 250.245 325.86C248.921 325.49 247.724 324.76 246.789 323.751C245.663 322.477 245.125 320.788 244.815 319.117C243.246 310.557 247.547 301.232 255.075 296.875C256.057 296.241 257.174 295.844 258.336 295.716C259.476 295.711 260.603 295.959 261.636 296.441L261.688 296.47Z" fill="black"/>
<path d="M383.025 308.338C386.53 308.242 390.463 308.066 393.038 310.428C395.493 312.661 395.817 316.345 395.98 319.662L396.165 323.513C396.223 324.686 396.27 325.898 395.798 326.986C394.959 328.895 392.656 329.816 390.554 329.706C388.451 329.597 386.52 328.676 384.599 327.845C379.382 325.596 373.951 323.884 368.388 322.735C368.569 320.072 368.871 317.422 369.294 314.785C369.585 312.957 369.632 309.898 370.853 308.381C372.145 306.777 373.828 307.646 375.583 307.942C378.045 308.318 380.537 308.45 383.025 308.338Z" fill="#FBBEBE"/>
<path d="M290.424 269.647C290.424 270.124 289.675 269.647 289.609 269.136C289.084 265.276 286.023 262.093 282.457 260.547C278.891 259.001 274.828 258.92 270.966 259.287C265.126 259.841 258.594 262.079 256.434 267.543C255.929 268.821 255.7 270.205 255.08 271.432C254.393 272.777 253.273 273.851 252.529 275.159C251.247 277.42 251.194 280.193 251.657 282.751C252.901 289.575 257.564 295.411 263.214 299.452C268.864 303.494 275.467 305.909 282.052 308.085C299.462 313.832 317.325 318.102 335.452 320.85C338.389 321.294 341.354 321.704 344.167 322.649C346.685 323.493 349.04 324.758 351.5 325.751C357.222 328.051 363.377 328.871 369.475 329.678C370.514 329.811 371.706 329.907 372.474 329.201C373.466 328.28 373.137 326.676 372.855 325.354C371.82 320.333 372.685 315.105 375.282 310.686C376.303 308.968 377.628 307.207 377.437 305.217C377.208 302.898 374.901 301.256 372.603 300.884C370.305 300.512 367.968 301.061 365.661 301.361C364.865 301.466 363.997 301.533 363.277 301.127C362.934 300.896 362.623 300.62 362.352 300.307C360.762 298.772 358.728 297.78 356.54 297.474C354.352 297.168 352.124 297.563 350.175 298.603C349.321 299.08 348.029 298.016 347.142 297.615L337.125 293.068C325.606 287.852 314.03 282.612 301.843 279.31C300.871 279.119 299.947 278.734 299.125 278.179C298.52 277.702 298.086 277.053 297.528 276.523C296.312 275.373 294.62 274.915 293.161 274.099C291.702 273.283 290.081 271.284 290.424 269.647Z" fill="#464353"/>
<path d="M444.993 332.011C443.391 334.984 440.282 336.836 436.945 337.599C436.107 337.788 435.256 337.91 434.399 337.962C430.179 338.224 426.012 337.055 421.945 335.901L416.424 334.335C415.475 334.036 414.502 333.819 413.516 333.686C412.173 333.597 410.825 333.643 409.492 333.825C402.966 334.432 396.388 334.137 389.943 332.947C389.404 332.888 388.886 332.704 388.432 332.407C388.034 332.017 387.68 331.583 387.378 331.114C385.876 329.306 384.26 328.251 386.039 325.865C387.064 324.481 388.966 323.789 389.762 322.2C390.558 320.611 390.048 318.354 389.576 316.713C388.933 314.446 386.816 313.468 386.058 311.387C385.49 309.817 386.444 307.994 387.879 307.14C389.314 306.286 391.088 306.219 392.742 306.439C394.397 306.658 396.018 307.126 397.682 307.255C402.573 307.646 407.575 305.122 412.271 306.544C413.306 306.859 414.283 307.36 415.332 307.636C417.377 308.094 419.513 307.909 421.449 307.107C422.136 306.849 422.808 306.539 423.476 306.233C424.763 305.563 426.134 305.067 427.552 304.759C432.134 303.972 436.382 307.145 439.839 310.242C441.026 311.227 442.076 312.367 442.962 313.63C443.915 315.119 444.421 316.851 444.869 318.559C446.132 322.983 447.177 327.955 444.993 332.011Z" fill="#3F3D56"/>
<path opacity="0.1" d="M444.993 332.011C443.391 334.984 440.282 336.836 436.945 337.599C438.243 335.075 438.828 332.244 438.637 329.411C438.351 324.873 436.358 320.597 433.817 316.827C432.254 314.507 430.475 312.338 428.506 310.352C426.99 308.825 425.125 307.613 423.495 306.214C424.782 305.544 426.153 305.048 427.571 304.74C432.153 303.952 436.401 307.126 439.858 310.223C441.045 311.208 442.095 312.348 442.981 313.611C443.934 315.1 444.44 316.832 444.888 318.54C446.132 322.983 447.177 327.955 444.993 332.011Z" fill="black"/>
<path d="M300.99 100.449C299.388 101.609 298.291 103.274 297.175 104.873C295.12 107.826 292.794 110.775 289.509 112.422C288.264 113.047 286.843 113.519 286.019 114.607C285.529 115.343 285.211 116.18 285.089 117.055C284.46 120.134 284.131 123.266 284.107 126.408C284.107 127.973 284.173 129.586 284.865 131.008C285.518 132.344 286.696 133.475 286.939 134.931C287.125 136.067 286.705 137.198 286.557 138.338C286.409 139.479 286.667 140.829 287.721 141.373C288.288 141.587 288.881 141.726 289.485 141.788C292.655 142.494 293.719 146.216 294.2 149.294C295.278 149.232 295.764 147.996 295.988 146.99L299.292 132.287C299.65 130.693 300.246 128.847 301.833 128.288C302.897 127.921 304.06 128.264 305.171 128.36C309.534 128.718 313.224 125.344 317.491 124.414C318.857 124.139 320.254 124.048 321.644 124.142C325.01 124.309 328.924 125.692 329.64 128.837C329.759 129.348 329.83 129.959 330.307 130.211C330.784 130.464 331.261 130.25 331.785 130.211C333.921 129.997 335.18 132.402 335.795 134.368L338.036 141.526C338.369 142.609 338.932 143.883 340.105 144.021C341.187 144.155 342.107 143.129 342.27 142.113C342.432 141.096 342.079 140.042 341.845 139.02C340.792 134.32 342.403 129.51 343.385 124.8C344.367 120.09 344.544 114.679 341.249 111.052C340.053 109.74 338.479 108.762 337.363 107.378C336.324 106.08 335.738 104.486 334.66 103.212C331.68 99.695 324.037 96.9798 319.351 96.5312C314.015 95.9443 305.319 97.3043 300.99 100.449Z" fill="#3F3D56"/>
<g opacity="0.1">
<path opacity="0.1" d="M340.124 140.676C338.951 140.533 338.389 139.245 338.055 138.18C337.308 135.791 336.561 133.405 335.814 131.022C335.199 129.052 333.94 126.647 331.804 126.866C331.327 126.919 330.765 127.114 330.326 126.866C329.888 126.618 329.778 126.002 329.659 125.492C328.943 122.342 325.029 120.963 321.663 120.796C320.273 120.705 318.877 120.796 317.51 121.068C313.219 122.023 309.553 125.363 305.19 125.015C304.065 124.924 302.902 124.58 301.853 124.948C300.246 125.501 299.669 127.334 299.311 128.947L296.007 143.644C295.783 144.656 295.297 145.892 294.219 145.949C293.742 142.876 292.674 139.154 289.504 138.448C288.901 138.381 288.309 138.242 287.74 138.032C287.325 137.806 287 137.444 286.82 137.006C286.734 137.45 286.634 137.894 286.576 138.338C286.433 139.474 286.686 140.829 287.74 141.373C288.308 141.587 288.9 141.726 289.504 141.788C292.674 142.494 293.738 146.216 294.219 149.294C295.297 149.232 295.783 147.996 296.007 146.989L299.311 132.287C299.669 130.693 300.265 128.846 301.853 128.288C302.916 127.921 304.079 128.264 305.19 128.36C309.553 128.718 313.243 125.344 317.51 124.413C318.87 124.141 320.26 124.049 321.644 124.141C325.01 124.308 328.924 125.692 329.64 128.837C329.759 129.348 329.83 129.958 330.307 130.211C330.784 130.464 331.261 130.249 331.785 130.211C333.921 129.997 335.18 132.402 335.795 134.368C336.539 136.757 337.286 139.143 338.036 141.525C338.37 142.609 338.932 143.883 340.105 144.021C341.187 144.155 342.108 143.129 342.27 142.112C342.343 141.257 342.246 140.396 341.984 139.579C341.814 139.923 341.548 140.21 341.218 140.405C340.887 140.6 340.507 140.694 340.124 140.676Z" fill="black"/>
<path opacity="0.1" d="M286.944 131.59C286.7 130.135 285.513 129.004 284.87 127.668C284.456 126.767 284.216 125.795 284.164 124.805C284.164 125.339 284.116 125.874 284.111 126.413C284.111 127.978 284.178 129.591 284.87 131.013C285.399 132.096 286.271 133.051 286.71 134.153C286.941 133.32 287.02 132.452 286.944 131.59Z" fill="black"/>
<path opacity="0.1" d="M343.404 121.436C342.537 125.597 341.183 129.834 341.602 134.005C341.874 130.927 342.77 127.83 343.404 124.776C343.933 122.458 344.119 120.076 343.957 117.704C343.854 118.959 343.669 120.205 343.404 121.436Z" fill="black"/>
</g>
<path d="M288.822 228.408C288.245 237.885 281.298 245.716 278.652 254.83C277.994 257.111 277.599 259.478 276.655 261.649C274.747 266.016 270.823 269.184 266.642 271.417C265.116 272.3 263.448 272.907 261.712 273.212C259.804 273.435 257.874 273.071 256.178 272.168C254.482 271.265 253.101 269.866 252.219 268.158C251.127 265.939 250.975 263.386 250.312 261C249.573 258.247 248.19 255.708 247.289 253.003C245.63 248.025 245.663 242.576 246.813 237.46C247.901 233.012 249.624 228.743 251.928 224.786C252.262 224.199 252.601 223.617 252.949 223.04C253.932 221.37 255.037 219.776 256.253 218.268C259.114 214.818 262.79 212.164 266.427 209.549C266.705 209.32 267.031 209.157 267.381 209.072H267.438C267.848 209.058 268.255 209.153 268.616 209.349C273.661 211.532 278.503 214.157 283.086 217.194C284.726 218.287 287.315 219.508 288.174 221.369C289.032 223.231 288.946 226.385 288.822 228.408Z" fill="#FBBEBE"/>
<path d="M269.894 184.797C269.429 185.284 269.069 185.86 268.835 186.491C264.981 195.185 262.705 204.495 262.113 213.987C262.123 214.45 262.016 214.908 261.803 215.319C261.592 215.592 261.357 215.846 261.102 216.077C260.87 216.353 260.696 216.673 260.593 217.018C260.489 217.363 260.457 217.725 260.499 218.083C260.541 218.441 260.656 218.786 260.837 219.098C261.018 219.41 261.26 219.681 261.55 219.895C262.337 218.411 264.22 217.929 265.893 217.8C273.908 217.165 281.737 220.897 289.776 220.615C289.208 218.654 288.393 216.769 287.93 214.784C285.885 205.97 290.987 196.374 287.859 187.885C287.234 186.186 286.19 184.516 284.545 183.771C283.864 183.496 283.151 183.307 282.424 183.208C280.392 182.841 276.349 181.271 274.385 181.901C273.66 182.135 273.374 182.817 272.773 183.227C271.882 183.814 270.671 184.02 269.894 184.797Z" fill="#F86D70"/>
<path opacity="0.1" d="M273.179 263.701C271.953 265.782 270.212 267.513 268.125 268.725C266.037 269.938 263.673 270.592 261.259 270.625C259.953 270.66 258.654 270.421 257.445 269.924C254.398 268.578 252.677 265.247 252.038 261.974C251.399 258.7 251.599 255.322 251.147 252.015C250.784 249.381 250.012 246.823 249.611 244.194C248.629 237.69 250.565 231.267 251.943 224.791C252.276 224.204 252.615 223.622 252.963 223.045C253.947 221.375 255.051 219.78 256.267 218.273C259.128 214.823 262.804 212.169 266.442 209.554H262.627C262.72 209.487 262.828 209.445 262.942 209.432C263.055 209.42 263.17 209.437 263.275 209.483C263.38 209.529 263.471 209.602 263.539 209.694C263.607 209.786 263.649 209.894 263.662 210.008C264.039 213.348 268.745 216.688 269.77 219.933C270.404 221.928 271.167 223.884 271.677 225.917C272.079 227.649 272.385 229.401 272.592 231.166C273.269 236.107 273.943 241.038 274.614 245.959C275.458 251.967 276.182 258.462 273.179 263.701Z" fill="black"/>
<path d="M266.866 201.046L271.467 186.601C272.154 184.439 272.85 182.244 272.931 179.973C273.012 177.701 272.416 175.32 270.828 173.698C269.541 172.386 267.758 171.708 266.232 170.682C262.418 168.11 260.511 163.605 258.522 159.458C256.534 155.312 253.917 150.974 249.578 149.437C248.577 149.084 247.194 149.056 246.746 150.015C246.591 150.414 246.566 150.851 246.674 151.265C247.094 153.47 248.672 155.231 250.045 156.991C252.348 159.974 254.274 163.624 253.721 167.356C253.063 171.775 249.096 175.201 248.62 179.644C248.41 181.6 248.91 183.561 248.906 185.532C248.906 186.754 248.705 187.999 248.977 189.192C249.259 190.115 249.595 191.02 249.983 191.903C250.408 193.329 250.629 194.809 250.641 196.298L251.647 215.08C252.191 225.239 246.684 235.122 248.2 245.143C248.6 247.772 249.373 250.33 249.735 252.964C250.212 256.271 249.988 259.645 250.627 262.923C251.266 266.202 253.011 269.528 256.034 270.873C257.242 271.37 258.541 271.609 259.848 271.575C262.261 271.542 264.626 270.887 266.713 269.675C268.801 268.462 270.542 266.732 271.767 264.651C274.771 259.402 274.046 252.917 273.226 246.933L271.205 232.14C270.997 230.374 270.692 228.622 270.289 226.89C269.784 224.858 269.021 222.901 268.382 220.906C266.337 214.383 264.806 207.526 266.866 201.046Z" fill="#FBBEBE"/>
<path d="M389.343 202.167H290.62C288.521 202.167 286.82 203.87 286.82 205.97V266.125C286.82 268.226 288.521 269.928 290.62 269.928H389.343C391.441 269.928 393.143 268.226 393.143 266.125V205.97C393.143 203.87 391.441 202.167 389.343 202.167Z" fill="#3F3D56"/>
<path opacity="0.2" d="M389.343 202.167H290.62C288.521 202.167 286.82 203.87 286.82 205.97V266.125C286.82 268.226 288.521 269.928 290.62 269.928H389.343C391.441 269.928 393.143 268.226 393.143 266.125V205.97C393.143 203.87 391.441 202.167 389.343 202.167Z" fill="black"/>
<path d="M339.743 238.911C341.323 238.911 342.603 237.629 342.603 236.048C342.603 234.467 341.323 233.185 339.743 233.185C338.163 233.185 336.882 234.467 336.882 236.048C336.882 237.629 338.163 238.911 339.743 238.911Z" fill="white"/>
<path d="M214.286 291.564H220.06C223.221 291.564 226.253 292.821 228.489 295.059C230.724 297.296 231.98 300.33 231.98 303.494V321.203H202.367V303.494C202.367 300.33 203.622 297.296 205.858 295.059C208.093 292.821 211.125 291.564 214.286 291.564Z" fill="#3F3D56"/>
<path opacity="0.1" d="M214.286 291.564H220.06C223.221 291.564 226.253 292.821 228.489 295.059C230.724 297.296 231.98 300.33 231.98 303.494V321.203H202.367V303.494C202.367 300.33 203.622 297.296 205.858 295.059C208.093 292.821 211.125 291.564 214.286 291.564Z" fill="black"/>
<path d="M215.993 298.088C217.302 298.088 218.363 297.026 218.363 295.716C218.363 294.406 217.302 293.344 215.993 293.344C214.684 293.344 213.624 294.406 213.624 295.716C213.624 297.026 214.684 298.088 215.993 298.088Z" fill="#3F3D56"/>
<path d="M215.993 295.124C217.302 295.124 218.363 294.062 218.363 292.753C218.363 291.443 217.302 290.381 215.993 290.381C214.684 290.381 213.624 291.443 213.624 292.753C213.624 294.062 214.684 295.124 215.993 295.124Z" fill="#3F3D56"/>
<path d="M215.993 292.161C217.302 292.161 218.363 291.099 218.363 289.789C218.363 288.479 217.302 287.417 215.993 287.417C214.684 287.417 213.624 288.479 213.624 289.789C213.624 291.099 214.684 292.161 215.993 292.161Z" fill="#3F3D56"/>
<path d="M215.993 289.198C217.302 289.198 218.363 288.136 218.363 286.826C218.363 285.516 217.302 284.454 215.993 284.454C214.684 284.454 213.624 285.516 213.624 286.826C213.624 288.136 214.684 289.198 215.993 289.198Z" fill="#3F3D56"/>
<path d="M215.993 286.234C217.302 286.234 218.363 285.172 218.363 283.863C218.363 282.553 217.302 281.491 215.993 281.491C214.684 281.491 213.624 282.553 213.624 283.863C213.624 285.172 214.684 286.234 215.993 286.234Z" fill="#3F3D56"/>
<path d="M215.993 283.271C217.302 283.271 218.363 282.209 218.363 280.899C218.363 279.589 217.302 278.528 215.993 278.528C214.684 278.528 213.624 279.589 213.624 280.899C213.624 282.209 214.684 283.271 215.993 283.271Z" fill="#3F3D56"/>
<path d="M215.993 280.307C217.302 280.307 218.363 279.246 218.363 277.936C218.363 276.626 217.302 275.564 215.993 275.564C214.684 275.564 213.624 276.626 213.624 277.936C213.624 279.246 214.684 280.307 215.993 280.307Z" fill="#3F3D56"/>
<path d="M219.545 281.491C220.854 281.491 221.915 280.429 221.915 279.119C221.915 277.809 220.854 276.748 219.545 276.748C218.236 276.748 217.176 277.809 217.176 279.119C217.176 280.429 218.236 281.491 219.545 281.491Z" fill="#3F3D56"/>
<path d="M221.915 280.307C223.224 280.307 224.284 279.246 224.284 277.936C224.284 276.626 223.224 275.564 221.915 275.564C220.606 275.564 219.545 276.626 219.545 277.936C219.545 279.246 220.606 280.307 221.915 280.307Z" fill="#3F3D56"/>
<path d="M224.284 279.119C225.593 279.119 226.654 278.057 226.654 276.748C226.654 275.438 225.593 274.376 224.284 274.376C222.976 274.376 221.915 275.438 221.915 276.748C221.915 278.057 222.976 279.119 224.284 279.119Z" fill="#3F3D56"/>
<path d="M215.993 277.339C217.302 277.339 218.363 276.277 218.363 274.968C218.363 273.658 217.302 272.596 215.993 272.596C214.684 272.596 213.624 273.658 213.624 274.968C213.624 276.277 214.684 277.339 215.993 277.339Z" fill="#3F3D56"/>
<path d="M215.993 274.376C217.302 274.376 218.363 273.314 218.363 272.004C218.363 270.694 217.302 269.633 215.993 269.633C214.684 269.633 213.624 270.694 213.624 272.004C213.624 273.314 214.684 274.376 215.993 274.376Z" fill="#3F3D56"/>
<path d="M215.993 271.413C217.302 271.413 218.363 270.351 218.363 269.041C218.363 267.731 217.302 266.669 215.993 266.669C214.684 266.669 213.624 267.731 213.624 269.041C213.624 270.351 214.684 271.413 215.993 271.413Z" fill="#3F3D56"/>
<path d="M215.993 268.449C217.302 268.449 218.363 267.388 218.363 266.078C218.363 264.768 217.302 263.706 215.993 263.706C214.684 263.706 213.624 264.768 213.624 266.078C213.624 267.388 214.684 268.449 215.993 268.449Z" fill="#3F3D56"/>
<path d="M225.81 258.428C225.224 258.514 224.632 258.576 224.041 258.614C224.591 258.134 225.101 257.611 225.567 257.049C225.237 256.053 224.755 255.115 224.137 254.267C223.549 254.597 222.9 254.802 222.229 254.868C221.643 254.954 221.052 255.021 220.461 255.059C221.255 254.303 222.011 253.506 222.725 252.673C221.011 251.13 218.82 250.223 216.517 250.104C214.215 249.985 211.942 250.661 210.078 252.019C208.214 253.377 206.872 255.334 206.278 257.564C205.683 259.793 205.872 262.159 206.812 264.266C207.753 266.373 209.387 268.092 211.443 269.137C213.498 270.182 215.85 270.488 218.104 270.005C220.359 269.522 222.379 268.279 223.827 266.483C225.274 264.688 226.062 262.449 226.058 260.141C226.058 259.561 226.007 258.981 225.905 258.409L225.81 258.428Z" fill="#682AE9"/>
<path d="M233.73 270.21C233.124 270.581 232.443 270.809 231.737 270.878C231.15 270.964 230.559 271.026 229.968 271.064C230.596 270.5 231.182 269.891 231.722 269.241C230.294 268.869 228.777 269.042 227.47 269.729C226.163 270.416 225.158 271.566 224.653 272.954C224.148 274.343 224.178 275.87 224.738 277.237C225.298 278.604 226.347 279.713 227.681 280.348C229.014 280.982 230.536 281.095 231.949 280.666C233.362 280.236 234.564 279.295 235.32 278.026C236.076 276.757 236.332 275.251 236.038 273.803C235.744 272.355 234.921 271.069 233.73 270.196V270.21Z" fill="#682AE9"/>
<path d="M212.436 281.491C213.745 281.491 214.806 280.429 214.806 279.119C214.806 277.809 213.745 276.748 212.436 276.748C211.128 276.748 210.067 277.809 210.067 279.119C210.067 280.429 211.128 281.491 212.436 281.491Z" fill="#3F3D56"/>
<path d="M210.067 280.307C211.375 280.307 212.436 279.246 212.436 277.936C212.436 276.626 211.375 275.564 210.067 275.564C208.758 275.564 207.697 276.626 207.697 277.936C207.697 279.246 208.758 280.307 210.067 280.307Z" fill="#3F3D56"/>
<path d="M207.697 279.119C209.006 279.119 210.067 278.057 210.067 276.748C210.067 275.438 209.006 274.376 207.697 274.376C206.388 274.376 205.327 275.438 205.327 276.748C205.327 278.057 206.388 279.119 207.697 279.119Z" fill="#3F3D56"/>
<path d="M198.252 270.21C198.857 270.582 199.538 270.81 200.245 270.878C200.831 270.964 201.423 271.026 202.014 271.064C201.384 270.501 200.798 269.892 200.259 269.241C201.688 268.869 203.204 269.042 204.512 269.729C205.819 270.416 206.823 271.566 207.329 272.954C207.834 274.343 207.804 275.87 207.244 277.237C206.684 278.604 205.634 279.713 204.301 280.348C202.967 280.982 201.445 281.095 200.032 280.666C198.62 280.236 197.418 279.295 196.661 278.026C195.905 276.757 195.649 275.251 195.943 273.803C196.237 272.355 197.061 271.069 198.252 270.196V270.21Z" fill="#682AE9"/>
<path d="M214.286 293.344H220.06C223.221 293.344 226.253 294.601 228.489 296.838C230.724 299.076 231.98 302.11 231.98 305.274V320.959C231.98 321.496 231.767 322.011 231.388 322.39C231.009 322.77 230.494 322.983 229.958 322.983H204.388C203.852 322.983 203.338 322.77 202.959 322.39C202.58 322.011 202.367 321.496 202.367 320.959V305.274C202.367 302.11 203.622 299.076 205.858 296.838C208.093 294.601 211.125 293.344 214.286 293.344Z" fill="#3F3D56"/>
<g opacity="0.1">
<path opacity="0.1" d="M225.991 259.077C225.751 259.334 225.497 259.576 225.228 259.802C225.5 259.802 225.767 259.76 226.039 259.731C226.029 259.511 226.015 259.292 225.991 259.077Z" fill="black"/>
<path opacity="0.1" d="M221.672 256.243C222.268 256.204 222.854 256.142 223.445 256.057C223.976 255.989 224.494 255.848 224.985 255.637C224.744 255.16 224.467 254.702 224.156 254.267C223.859 254.448 223.538 254.584 223.202 254.673C222.735 255.236 222.223 255.761 221.672 256.243Z" fill="black"/>
<path opacity="0.1" d="M207.106 261.334C207.102 259.525 207.586 257.748 208.507 256.192C209.428 254.635 210.751 253.355 212.337 252.487C213.923 251.62 215.714 251.196 217.52 251.262C219.327 251.327 221.082 251.879 222.601 252.859L222.754 252.697C221.762 251.814 220.606 251.136 219.351 250.702C218.097 250.269 216.769 250.088 215.444 250.17C214.119 250.252 212.824 250.596 211.633 251.181C210.441 251.767 209.377 252.583 208.502 253.581C207.627 254.58 206.958 255.743 206.534 257.001C206.11 258.26 205.939 259.59 206.031 260.916C206.122 262.241 206.475 263.535 207.069 264.723C207.663 265.911 208.485 266.97 209.49 267.838C207.948 266.023 207.103 263.717 207.106 261.334Z" fill="black"/>
</g>
<g opacity="0.1">
<path opacity="0.1" d="M229.968 272.248C230.559 272.21 231.15 272.148 231.737 272.062C232.443 271.995 233.125 271.766 233.73 271.394C234.399 271.887 234.957 272.516 235.368 273.239C235.779 273.963 236.033 274.765 236.113 275.593C236.137 275.385 236.148 275.177 236.147 274.968C236.151 274.041 235.938 273.126 235.524 272.297C235.11 271.468 234.506 270.748 233.763 270.196C233.158 270.567 232.476 270.795 231.77 270.864L231.293 270.921C230.886 271.397 230.443 271.841 229.968 272.248Z" fill="black"/>
<path opacity="0.1" d="M230.206 270.224C230.404 270.227 230.601 270.241 230.797 270.267C231.107 269.938 231.412 269.585 231.722 269.241C230.846 269.007 229.927 268.978 229.037 269.156C228.148 269.334 227.311 269.714 226.592 270.268C225.873 270.822 225.291 271.534 224.89 272.349C224.49 273.164 224.283 274.06 224.284 274.968C224.284 275.168 224.284 275.364 224.313 275.559C224.46 274.097 225.144 272.742 226.233 271.756C227.322 270.77 228.738 270.224 230.206 270.224Z" fill="black"/>
</g>
<g opacity="0.1">
<path opacity="0.1" d="M202.014 272.248C201.423 272.21 200.831 272.148 200.245 272.062C199.538 271.996 198.856 271.767 198.252 271.394C197.583 271.887 197.024 272.516 196.614 273.239C196.203 273.963 195.949 274.765 195.868 275.593C195.845 275.385 195.834 275.177 195.835 274.968C195.83 274.041 196.044 273.126 196.458 272.297C196.872 271.468 197.475 270.748 198.219 270.196C198.823 270.567 199.505 270.796 200.212 270.864L200.688 270.921C201.093 271.399 201.536 271.843 202.014 272.248Z" fill="black"/>
<path opacity="0.1" d="M201.775 270.224C201.576 270.227 201.377 270.241 201.179 270.267C200.874 269.938 200.569 269.585 200.259 269.241C201.136 269.007 202.054 268.978 202.944 269.156C203.834 269.334 204.671 269.714 205.39 270.268C206.109 270.822 206.691 271.534 207.091 272.349C207.491 273.164 207.699 274.06 207.697 274.968C207.697 275.168 207.697 275.364 207.668 275.559C207.522 274.097 206.838 272.742 205.749 271.756C204.66 270.77 203.244 270.224 201.775 270.224Z" fill="black"/>
</g>
<path d="M98.2522 236.755C97.9859 235.837 97.7288 234.914 97.4808 233.988L98.4019 233.741C98.6481 234.661 98.9034 235.577 99.168 236.489L98.2522 236.755Z" fill="#CCCCCC"/>
<path d="M107.121 138.036L106.26 137.626C106.672 136.761 107.092 135.901 107.522 135.045L108.374 135.474C107.948 136.323 107.53 137.177 107.121 138.036Z" fill="#CCCCCC"/>
<path d="M201.918 151.431H193.098V226.112C193.096 228.01 192.341 229.829 191.001 231.171C189.66 232.513 187.842 233.268 185.946 233.27H41.7187V239.712C41.7217 241.863 42.5767 243.924 44.0961 245.445C45.6154 246.966 47.6753 247.821 49.824 247.824H201.918C204.067 247.821 206.127 246.966 207.646 245.445C209.166 243.924 210.021 241.863 210.024 239.712V159.544C210.021 157.393 209.166 155.331 207.646 153.811C206.127 152.29 204.067 151.434 201.918 151.431Z" fill="#F2F2F2"/>
<path d="M185.946 137.832H33.8517C31.703 137.835 29.6431 138.69 28.1237 140.211C26.6044 141.732 25.7494 143.793 25.7464 145.944V226.112C25.7494 228.263 26.6044 230.324 28.1238 231.845C29.6431 233.366 31.703 234.221 33.8517 234.224H185.946C188.095 234.221 190.155 233.366 191.674 231.845C193.194 230.324 194.048 228.263 194.052 226.112V145.944C194.048 143.793 193.194 141.732 191.674 140.211C190.155 138.69 188.095 137.835 185.946 137.832ZM193.098 226.112C193.096 228.01 192.341 229.829 191.001 231.171C189.66 232.513 187.842 233.268 185.946 233.27H33.8517C31.9557 233.268 30.1379 232.513 28.7972 231.171C27.4565 229.829 26.7023 228.01 26.7 226.112V145.944C26.7023 144.046 27.4565 142.227 28.7972 140.885C30.1379 139.543 31.9557 138.788 33.8517 138.786H185.946C187.842 138.788 189.66 139.543 191.001 140.885C192.341 142.227 193.096 144.046 193.098 145.944V226.112Z" fill="#3F3D56"/>
<path d="M174.475 197.003H121.075C120.064 197.003 119.093 196.601 118.378 195.885C117.663 195.169 117.261 194.198 117.261 193.186C117.261 192.173 117.663 191.202 118.378 190.486C119.093 189.77 120.064 189.368 121.075 189.368H174.475C175.487 189.368 176.457 189.77 177.172 190.486C177.888 191.202 178.289 192.173 178.289 193.186C178.289 194.198 177.888 195.169 177.172 195.885C176.457 196.601 175.487 197.003 174.475 197.003Z" fill="#CCCCCC"/>
<path d="M141.1 180.779H121.075C120.064 180.779 119.093 180.376 118.378 179.66C117.663 178.945 117.261 177.974 117.261 176.961C117.261 175.949 117.663 174.978 118.378 174.262C119.093 173.546 120.064 173.144 121.075 173.144H141.1C142.112 173.144 143.082 173.546 143.797 174.262C144.513 174.978 144.915 175.949 144.915 176.961C144.915 177.974 144.513 178.945 143.797 179.66C143.082 180.376 142.112 180.779 141.1 180.779Z" fill="#CCCCCC"/>
<path d="M97.0257 216.091H48.3937C47.3192 216.09 46.2891 215.662 45.5293 214.902C44.7696 214.141 44.3422 213.11 44.341 212.035V158.112C44.3422 157.037 44.7696 156.006 45.5293 155.245C46.2891 154.485 47.3192 154.057 48.3937 154.056H97.0257C98.1002 154.057 99.1303 154.485 99.8901 155.245C100.65 156.006 101.077 157.037 101.078 158.112V212.035C101.077 213.11 100.65 214.141 99.8901 214.902C99.1303 215.662 98.1002 216.09 97.0257 216.091Z" fill="#682AE9"/>
<path d="M73.4457 204.859C72.3733 204.829 71.0388 204.792 70.0112 204.04C69.7051 203.808 69.4536 203.51 69.2743 203.17C69.095 202.829 68.9923 202.454 68.9733 202.069C68.9547 201.796 68.9995 201.522 69.1042 201.269C69.2089 201.016 69.3706 200.791 69.5767 200.611C69.883 200.382 70.2416 200.234 70.62 200.179C70.9983 200.125 71.3842 200.166 71.7426 200.299L70.8672 193.896L71.5098 193.808L72.539 201.335L72.0024 201.089C71.3802 200.803 70.5261 200.658 69.9954 201.107C69.8651 201.224 69.7636 201.37 69.6987 201.533C69.6339 201.696 69.6075 201.871 69.6216 202.046C69.6373 202.332 69.7144 202.612 69.8477 202.865C69.9809 203.119 70.1672 203.341 70.3938 203.516C71.1935 204.101 72.2573 204.176 73.4639 204.21L73.4457 204.859Z" fill="#3F3D56"/>
<path d="M67.6891 194.448H64.1956V195.097H67.6891V194.448Z" fill="#3F3D56"/>
<path d="M78.7161 194.448H75.2226V195.097H78.7161V194.448Z" fill="#3F3D56"/>
<path d="M58.1261 185.483C55.3128 185.162 53.134 182.464 52.8947 179.727C52.61 176.471 54.5048 173.378 57.1044 171.55C59.8229 169.639 63.21 168.841 66.4871 168.666C72.88 168.347 79.1628 170.42 84.1136 174.48C86.5692 176.522 88.8625 179.122 89.7317 182.262C90.4866 184.99 89.8723 188.08 87.6805 189.99C87.1383 190.459 86.505 190.809 85.8206 191.02C85.1363 191.231 84.4156 191.297 83.7043 191.216C82.0035 191.039 80.4343 190.144 79.076 189.155C76.4338 187.233 74.2647 184.554 71.0456 183.549C68.6852 182.813 65.6222 183.461 64.1798 185.597C63.8525 186.086 63.6404 186.643 63.5595 187.226C63.5297 187.351 63.5482 187.482 63.6113 187.593C63.6744 187.704 63.7774 187.787 63.8993 187.825C64.0237 187.859 64.1563 187.842 64.2683 187.778C64.3803 187.715 64.4628 187.609 64.4978 187.485C64.8764 184.795 68.1821 183.791 70.5018 184.405C73.8841 185.301 76.1545 188.322 78.9295 190.241C80.3659 191.313 82.0582 191.989 83.8373 192.202C85.3799 192.323 86.9109 191.852 88.1195 190.885C90.4902 189.011 91.3968 185.789 90.8726 182.888C90.2655 179.528 88.0061 176.648 85.527 174.419C80.5013 169.947 73.9767 167.535 67.2533 167.663C63.824 167.741 60.2459 168.45 57.2916 170.264C54.426 172.024 52.2111 174.967 51.9216 178.389C51.6668 181.401 53.2814 184.552 56.0529 185.871C56.7064 186.181 57.4072 186.379 58.1261 186.457C58.7471 186.528 58.7421 185.553 58.1261 185.483Z" fill="#3F3D56"/>
<path d="M110.874 111.17L110.341 110.379C111.129 109.847 111.911 109.308 112.688 108.761L113.236 109.542C112.455 110.092 111.667 110.635 110.874 111.17Z" fill="#CCCCCC"/>
<path d="M154.5 64.0458L153.671 63.5746C154.14 62.7484 154.6 61.917 155.052 61.0806L155.891 61.5345C155.436 62.3768 154.972 63.2139 154.5 64.0458Z" fill="#CCCCCC"/>
<path d="M245.096 75.2917H237.439V100.258C237.436 102.409 236.581 104.471 235.062 105.991C233.542 107.512 231.482 108.368 229.334 108.371H38.1714V112.036C38.1736 114.44 39.1287 116.744 40.8271 118.444C42.5255 120.144 44.8284 121.1 47.2304 121.102H245.096C247.498 121.1 249.801 120.144 251.499 118.444C253.198 116.744 254.153 114.44 254.155 112.036V84.3584C254.153 81.9544 253.198 79.6496 251.499 77.9497C249.801 76.2499 247.498 75.2939 245.096 75.2917Z" fill="#F2F2F2"/>
<path d="M229.334 63.5146H31.4678C29.0659 63.5168 26.763 64.4728 25.0646 66.1726C23.3662 67.8725 22.4111 70.1773 22.4089 72.5813V100.258C22.4111 102.662 23.3662 104.967 25.0646 106.667C26.763 108.367 29.0659 109.323 31.4678 109.325H229.334C231.735 109.323 234.038 108.367 235.737 106.667C237.435 104.967 238.39 102.662 238.393 100.258V72.5813C238.39 70.1773 237.435 67.8725 235.737 66.1726C234.038 64.4728 231.735 63.5168 229.334 63.5146ZM237.439 100.258C237.436 102.409 236.581 104.471 235.062 105.991C233.542 107.512 231.482 108.368 229.334 108.371H31.4678C29.3191 108.368 27.2592 107.512 25.7398 105.991C24.2204 104.471 23.3655 102.409 23.3625 100.258V72.5813C23.3655 70.4307 24.2204 68.3691 25.7398 66.8484C27.2592 65.3277 29.3191 64.4721 31.4678 64.469H229.334C231.482 64.4721 233.542 65.3277 235.062 66.8484C236.581 68.3691 237.436 70.4307 237.439 72.5813V100.258Z" fill="#3F3D56"/>
<path d="M66.1928 71.1511C63.1752 71.1511 60.2254 72.0467 57.7164 73.7246C55.2074 75.4025 53.2518 77.7874 52.0971 80.5776C50.9423 83.3679 50.6401 86.4382 51.2288 89.4003C51.8175 92.3624 53.2706 95.0833 55.4044 97.2189C57.5381 99.3545 60.2567 100.809 63.2163 101.398C66.1759 101.987 69.2436 101.685 72.0314 100.529C74.8193 99.3733 77.2022 97.4161 78.8786 94.9049C80.5551 92.3937 81.4499 89.4414 81.4499 86.4213C81.4453 82.3728 79.8364 78.4915 76.9761 75.6288C74.1158 72.7661 70.2378 71.1558 66.1928 71.1511Z" fill="#682AE9"/>
<path d="M206.052 99.3055H96.8686C95.857 99.3055 94.8868 98.9033 94.1715 98.1874C93.4561 97.4714 93.0543 96.5004 93.0543 95.4879C93.0543 94.4755 93.4561 93.5045 94.1715 92.7885C94.8868 92.0726 95.857 91.6704 96.8686 91.6704H206.052C207.064 91.6704 208.034 92.0726 208.749 92.7885C209.465 93.5045 209.867 94.4755 209.867 95.4879C209.867 96.5004 209.465 97.4714 208.749 98.1874C208.034 98.9033 207.064 99.3055 206.052 99.3055Z" fill="#CCCCCC"/>
<path d="M151.222 83.0809H96.8686C95.857 83.0809 94.8868 82.6787 94.1715 81.9628C93.4561 81.2468 93.0543 80.2758 93.0543 79.2633C93.0543 78.2509 93.4561 77.2799 94.1715 76.5639C94.8868 75.848 95.857 75.4458 96.8686 75.4458H151.222C152.234 75.4458 153.204 75.848 153.919 76.5639C154.634 77.2799 155.036 78.2509 155.036 79.2633C155.036 80.2758 154.634 81.2468 153.919 81.9628C153.204 82.6787 152.234 83.0809 151.222 83.0809Z" fill="#CCCCCC"/>
<path d="M65.1582 93.0981C64.7639 93.0988 64.3802 92.9711 64.0647 92.7344L64.0452 92.7197L59.9268 89.5666C59.5416 89.271 59.2895 88.8344 59.2259 88.3527C59.1623 87.8711 59.2925 87.3839 59.5879 86.9984C59.8832 86.6128 60.3195 86.3605 60.8007 86.2969C61.2819 86.2333 61.7686 86.3636 62.1539 86.6592L64.8214 88.7065L71.125 80.4758C71.2712 80.285 71.4535 80.1248 71.6615 80.0045C71.8695 79.8842 72.0991 79.806 72.3373 79.7746C72.5755 79.7431 72.8175 79.7588 73.0496 79.821C73.2817 79.8831 73.4993 79.9904 73.6899 80.1367L73.6905 80.1371L73.6514 80.1915L73.6915 80.1371C74.0762 80.433 74.3278 80.8695 74.3913 81.3509C74.4547 81.8322 74.3248 82.3191 74.0299 82.7047L66.6155 92.3816C66.444 92.6046 66.2234 92.785 65.971 92.9089C65.7185 93.0328 65.441 93.0968 65.1598 93.096L65.1582 93.0981Z" fill="white"/>
<defs>
<linearGradient id="paint0_linear" x1="345.397" y1="337.995" x2="345.397" y2="93.8398" gradientUnits="userSpaceOnUse">
<stop stop-color="#808080" stop-opacity="0.25"/>
<stop offset="0.54" stop-color="#808080" stop-opacity="0.12"/>
<stop offset="1" stop-color="#808080" stop-opacity="0.1"/>
</linearGradient>
</defs>
</svg>
