<svg width="140" height="140" viewBox="0 0 140 140" fill="none" xmlns="http://www.w3.org/2000/svg">
<path d="M70 140C108.66 140 140 108.66 140 70C140 31.3401 108.66 0 70 0C31.3401 0 0 31.3401 0 70C0 108.66 31.3401 140 70 140Z" fill="#682AE9"/>
<path d="M70 105.02C61.8497 105.02 54.455 101.523 48.9991 95.8702C48.995 99.2579 48.872 104.147 47.9736 107.715C48.5628 108.075 49.0201 108.667 49.1094 109.402C50.2737 118.877 59.2538 126.02 70 126.02C80.7438 126.02 89.724 118.876 90.8906 109.402C90.9811 108.666 91.4285 108.075 92.0267 107.716C91.1283 104.148 91.005 99.2582 91.0009 95.8702C85.545 101.523 78.1503 105.02 70 105.02Z" fill="white"/>
<path d="M90.545 96.3007C85.1349 101.69 77.9328 105.02 70 105.02C61.8497 105.02 54.455 101.523 48.9991 95.8702C48.995 99.2579 48.872 104.147 47.9736 107.715C48.5628 108.075 49.0201 108.667 49.1094 109.402C49.6242 113.59 51.6696 117.319 54.7161 120.18C68.7651 118.202 84.7108 104.33 90.545 96.3007Z" fill="#D7DBE0"/>
<path d="M91 46.6871H51.3333C44.9006 46.6871 39.6667 51.9211 39.6667 58.3538V72.3538C39.6667 90.3665 53.2747 105.02 70 105.02C86.7253 105.02 100.333 90.3665 100.333 72.3538V56.0205C100.333 50.8743 96.1473 46.6871 91 46.6871Z" fill="white"/>
<path d="M86.3333 21.0204H56C51.6113 21.0204 47.9223 24.0648 46.9286 28.1513C38.8964 29.1725 32.6667 36.0494 32.6667 44.3537V56.0204C32.6667 62.0337 35.2193 67.6436 39.6667 71.6304V58.3537C39.6667 51.921 44.9006 46.6871 51.3333 46.6871H91C96.1473 46.6871 100.333 50.8739 100.333 56.0204V71.6278C104.782 67.6415 107.333 62.0322 107.333 56.0204V42.0204C107.333 30.4415 97.9134 21.0204 86.3333 21.0204Z" fill="black"/>
<path d="M17.976 116.825C30.7889 131.051 49.3474 140 70 140C90.6526 140 109.211 131.051 122.024 116.825C119.79 113.805 116.639 111.351 112.588 110.216C112.495 110.19 112.401 110.17 112.305 110.156L93.6798 107.361C93.5658 107.344 93.322 107.335 93.2059 107.335C92.0278 107.335 91.0344 108.214 90.8906 109.383C89.724 118.857 80.7438 126.002 70 126.002C59.2538 126.002 50.2737 118.858 49.1094 109.383C48.9636 108.179 47.8788 107.274 46.7349 107.336C46.5981 107.328 46.4637 107.339 46.3202 107.361L27.6946 110.156C27.599 110.17 27.5056 110.19 27.412 110.216C23.3608 111.351 20.2102 113.805 17.976 116.825Z" fill="black"/>
</svg>
