<svg width="496" height="366" viewBox="0 0 496 366" fill="none" xmlns="http://www.w3.org/2000/svg">
<g clip-path="url(#clip0)">
<path opacity="0.1" d="M13.7085 229.801C7.76124 230.767 0.302326 233.531 0.371712 239.956C0.406404 243.216 2.57221 245.995 4.67855 248.377C13.6313 258.574 23.8452 267.591 35.0742 275.212C40.4367 278.843 46.2006 282.316 49.7641 287.928C53.3275 293.541 54.2245 300.684 54.507 307.481C55.2019 323.573 53.3043 339.671 48.8868 355.161C66.3471 358.485 85.8196 361.398 100.371 350.901C109.083 344.615 114.976 334.083 124.685 329.723C131.168 326.811 138.508 327.068 145.575 327.44C179.029 329.2 212.4 332.503 245.688 337.347C259.63 339.378 273.839 341.677 287.631 339.051C301.424 336.426 314.994 327.861 320.079 313.975C320.862 311.835 321.566 309.448 323.32 308.16C324.906 307.01 326.983 307.035 328.911 307.105L445.418 311.107C451.802 311.325 458.408 311.503 464.251 308.878C469.916 306.337 474.273 301.447 478.465 296.657C488.055 285.729 498.369 272.284 495.549 257.453C493.294 245.564 483.213 237.256 473.217 231.44C463.221 225.625 452.193 220.864 444.848 211.566C433.672 197.413 434.113 177.157 433.42 158.793C432.787 142.165 430.74 125.621 427.299 109.34C424.271 95.0283 420.053 80.697 412.168 68.6098C404.283 56.5226 392.225 46.8429 378.585 45.0695C360.773 42.7511 342.867 53.8575 325.441 49.1415C310.722 45.1785 300.592 31.0949 288.395 21.3359C266.732 3.9977 238.303 0.366581 211.427 0.0346777C182.929 -0.326948 153.678 2.55615 128.278 15.9313C122.46 18.9928 116.77 22.6982 112.741 28.1077C106.566 36.4053 105.069 47.5513 101.03 57.2508C84.7491 96.3064 31.7982 104.728 14.6105 143.367C8.5096 157.074 8.56908 173.06 13.0147 187.456C17.7973 202.946 31.258 211.502 36.5957 225.006C30.8516 228.701 20.6718 228.666 13.7085 229.801Z" fill="#682AE9"/>
<g opacity="0.2">
<path opacity="0.2" d="M438.886 183.746C438.886 183.746 441.265 152.155 459.127 134.99C466.665 127.839 471.678 118.437 473.415 108.195C474.195 103.327 474.526 98.397 474.406 93.4679" stroke="#535461" stroke-width="2" stroke-miterlimit="10"/>
<path opacity="0.2" d="M485.617 82.5844C484.299 86.0521 474.168 93.7849 474.168 93.7849C474.168 93.7849 471.69 81.2964 472.999 77.8139C473.312 76.9855 473.786 76.2268 474.392 75.5813C474.999 74.9358 475.727 74.416 476.535 74.0517C477.343 73.6874 478.214 73.4856 479.1 73.458C479.985 73.4303 480.868 73.5773 481.697 73.8905C482.526 74.2038 483.285 74.6771 483.93 75.2836C484.576 75.89 485.096 76.6176 485.461 77.4249C485.825 78.2322 486.027 79.1034 486.055 79.9887C486.082 80.8739 485.935 81.756 485.622 82.5844H485.617Z" fill="#682AE9"/>
<path opacity="0.2" d="M488.749 105.823C485.751 108.032 473.048 109.003 473.048 109.003C473.048 109.003 477.752 97.1684 480.75 94.959C481.463 94.434 482.273 94.0546 483.133 93.8424C483.993 93.6302 484.887 93.5894 485.762 93.7224C486.638 93.8553 487.479 94.1594 488.237 94.6172C488.996 95.075 489.656 95.6776 490.182 96.3906C490.707 97.1036 491.086 97.913 491.299 98.7726C491.511 99.6323 491.552 100.525 491.419 101.401C491.286 102.276 490.982 103.117 490.524 103.875C490.065 104.632 489.463 105.293 488.749 105.818V105.823Z" fill="#682AE9"/>
<path opacity="0.2" d="M475.819 138.627C472.112 139.018 460.658 133.45 460.658 133.45C460.658 133.45 470.694 125.608 474.396 125.212C476.176 125.023 477.958 125.549 479.35 126.674C480.742 127.798 481.63 129.429 481.818 131.208C482.007 132.987 481.481 134.768 480.356 136.159C479.231 137.55 477.599 138.438 475.819 138.627Z" fill="#682AE9"/>
<path opacity="0.2" d="M460.445 161.245C456.857 162.236 444.625 158.704 444.625 158.704C444.625 158.704 453.189 149.292 456.778 148.267C457.63 148.026 458.522 147.955 459.402 148.059C460.282 148.163 461.132 148.439 461.906 148.871C462.679 149.304 463.359 149.884 463.908 150.579C464.457 151.274 464.863 152.071 465.104 152.923C465.345 153.775 465.415 154.667 465.311 155.546C465.208 156.426 464.931 157.276 464.499 158.049C464.066 158.822 463.486 159.502 462.79 160.05C462.094 160.599 461.298 161.005 460.445 161.245Z" fill="#682AE9"/>
<path opacity="0.2" d="M459.543 104.673C461.124 108.047 471.819 114.962 471.819 114.962C471.819 114.962 473.341 102.32 471.76 98.9468C471.384 98.145 470.853 97.4251 470.199 96.8282C469.544 96.2314 468.778 95.7692 467.945 95.4681C467.112 95.1671 466.227 95.033 465.342 95.0735C464.457 95.1141 463.589 95.3285 462.787 95.7045C461.985 96.0805 461.264 96.6108 460.667 97.265C460.07 97.9192 459.608 98.6846 459.307 99.5174C459.005 100.35 458.871 101.234 458.912 102.119C458.952 103.004 459.167 103.872 459.543 104.673Z" fill="#682AE9"/>
<path opacity="0.2" d="M441.894 131.354C444.412 134.099 456.688 137.502 456.688 137.502C456.688 137.502 454.354 124.984 451.836 122.239C450.627 120.921 448.943 120.137 447.156 120.059C445.368 119.982 443.622 120.617 442.303 121.826C440.984 123.035 440.2 124.717 440.122 126.504C440.044 128.291 440.68 130.036 441.89 131.354H441.894Z" fill="#682AE9"/>
<path opacity="0.2" d="M428.305 159.635C430.322 162.766 441.85 168.191 441.85 168.191C441.85 168.191 441.666 155.459 439.649 152.339C438.68 150.835 437.153 149.778 435.403 149.4C433.654 149.022 431.826 149.353 430.322 150.322C428.818 151.291 427.76 152.818 427.382 154.566C427.003 156.315 427.335 158.142 428.305 159.645V159.635Z" fill="#682AE9"/>
</g>
<path d="M81.3492 43.509V61.3278V271.878H448.496V61.3278V43.509H81.3492Z" fill="url(#paint0_linear)"/>
<path d="M444.62 45.9215H85.2298V63.3638H444.62V45.9215Z" fill="#F6F7F9"/>
<g opacity="0.2">
<path opacity="0.2" d="M444.62 45.9215H85.2298V63.3638H444.62V45.9215Z" fill="#682AE9"/>
</g>
<path d="M93.8484 58.4149C95.9916 58.4149 97.729 56.6783 97.729 54.5361C97.729 52.3939 95.9916 50.6573 93.8484 50.6573C91.7052 50.6573 89.9678 52.3939 89.9678 54.5361C89.9678 56.6783 91.7052 58.4149 93.8484 58.4149Z" fill="#F6F7F9"/>
<path d="M104.187 58.4149C106.33 58.4149 108.067 56.6783 108.067 54.5361C108.067 52.3939 106.33 50.6573 104.187 50.6573C102.044 50.6573 100.306 52.3939 100.306 54.5361C100.306 56.6783 102.044 58.4149 104.187 58.4149Z" fill="#F6F7F9"/>
<path d="M114.53 58.4149C116.673 58.4149 118.411 56.6783 118.411 54.5361C118.411 52.3939 116.673 50.6573 114.53 50.6573C112.387 50.6573 110.65 52.3939 110.65 54.5361C110.65 56.6783 112.387 58.4149 114.53 58.4149Z" fill="#F6F7F9"/>
<g opacity="0.2">
<path opacity="0.2" d="M282.591 88.9946H97.7241V102.345H282.591V88.9946Z" fill="#682AE9"/>
</g>
<g opacity="0.2">
<path opacity="0.2" d="M426.947 88.9946H329.991V102.345H426.947V88.9946Z" fill="#682AE9"/>
</g>
<g opacity="0.2">
<path opacity="0.2" d="M146.631 215.197H133.705V257.839H146.631V215.197Z" fill="#682AE9"/>
<path opacity="0.2" d="M171.624 184.612H158.699V257.834H171.624V184.612Z" fill="#682AE9"/>
<path opacity="0.2" d="M196.618 154.033H183.692V257.834H196.618V154.033Z" fill="#682AE9"/>
<path opacity="0.2" d="M221.611 163.94H208.686V257.839H221.611V163.94Z" fill="#682AE9"/>
<path opacity="0.2" d="M246.605 193.227H233.679V257.834H246.605V193.227Z" fill="#682AE9"/>
</g>
<g opacity="0.2">
<path opacity="0.2" d="M426.734 131.637H329.778V250.731H426.734V131.637Z" fill="#682AE9"/>
</g>
<path d="M7.74141 318.934C7.74141 318.934 -20.8354 336.168 31.8429 362.701C31.8429 362.701 43.45 341.162 30.6187 323.601C28.1273 320.178 24.4665 317.787 20.3297 316.881C16.1928 315.976 11.8673 316.618 8.17258 318.686L7.74141 318.934Z" fill="#682AE9"/>
<path d="M8.0685 318.568C8.0685 318.568 32.5268 337.268 31.8577 362.696" stroke="#535461" stroke-miterlimit="10"/>
<path d="M33.2256 363.013C33.2256 363.013 24.2699 332.602 34.8908 310.255C39.4118 300.902 40.7752 290.335 38.7764 280.141C37.7888 275.31 36.3604 270.579 34.5092 266.008" stroke="#535461" stroke-width="2" stroke-miterlimit="10"/>
<path d="M41.1405 251.855C41.1405 255.58 34.3952 266.38 34.3952 266.38C34.3952 266.38 27.65 255.58 27.65 251.855C27.65 250.066 28.3609 248.351 29.6264 247.086C30.8918 245.821 32.6081 245.11 34.3977 245.11C36.1873 245.11 37.9036 245.821 39.1691 247.086C40.4345 248.351 41.1454 250.066 41.1454 251.855H41.1405Z" fill="#682AE9"/>
<path d="M52.2917 272.502C50.2646 275.628 38.7318 281.028 38.7318 281.028C38.7318 281.028 38.94 268.297 40.967 265.176C41.4486 264.432 42.072 263.791 42.8015 263.289C43.531 262.786 44.3524 262.433 45.2188 262.247C46.0851 262.062 46.9795 262.049 47.8508 262.21C48.7221 262.37 49.5532 262.7 50.2968 263.182C51.0404 263.663 51.6819 264.286 52.1845 265.015C52.6872 265.745 53.0413 266.566 53.2265 267.432C53.4118 268.298 53.4245 269.192 53.2641 270.062C53.1037 270.933 52.7733 271.764 52.2917 272.507V272.502Z" fill="#682AE9"/>
<path d="M51.806 307.753C48.4804 309.433 35.7929 308.249 35.7929 308.249C35.7929 308.249 42.4043 297.351 45.7298 295.686C47.3275 294.881 49.1798 294.743 50.8793 295.302C52.5788 295.862 53.9862 297.074 54.792 298.671C55.5977 300.268 55.7358 302.119 55.1758 303.818C54.6158 305.517 53.4037 306.923 51.806 307.729V307.753Z" fill="#682AE9"/>
<path d="M45.4275 334.345C42.4538 336.56 29.7316 337.56 29.7316 337.56C29.7316 337.56 34.4051 325.716 37.4036 323.502C38.1159 322.975 38.9251 322.594 39.7848 322.38C40.6446 322.166 41.5381 322.123 42.4143 322.254C43.2906 322.385 44.1324 322.687 44.8917 323.144C45.6511 323.6 46.3131 324.201 46.84 324.913C47.3668 325.625 47.7482 326.434 47.9624 327.293C48.1765 328.153 48.2192 329.046 48.0881 329.922C47.9569 330.798 47.6544 331.639 47.1979 332.398C46.7414 333.157 46.1398 333.819 45.4275 334.345Z" fill="#682AE9"/>
<path d="M24.5673 281.751C27.2386 284.347 39.6933 287.037 39.6933 287.037C39.6933 287.037 36.6453 274.652 33.969 272.076C33.3335 271.458 32.5823 270.972 31.7586 270.644C30.9348 270.316 30.0545 270.153 29.1679 270.165C28.2813 270.178 27.4057 270.364 26.5913 270.715C25.7768 271.065 25.0394 271.572 24.4211 272.208C23.8028 272.843 23.3157 273.594 22.9877 274.417C22.6597 275.24 22.4971 276.12 22.5093 277.007C22.5215 277.893 22.7082 278.768 23.0588 279.582C23.4094 280.396 23.9169 281.133 24.5524 281.751H24.5673Z" fill="#682AE9"/>
<path d="M17.4999 312.945C20.8255 314.624 33.5131 313.44 33.5131 313.44C33.5131 313.44 26.9016 302.542 23.5761 300.878C21.9784 300.072 20.1261 299.934 18.4266 300.494C16.7271 301.054 15.3196 302.265 14.5139 303.862C13.7081 305.459 13.5701 307.311 14.1301 309.009C14.6901 310.708 15.9022 312.115 17.4999 312.92V312.945Z" fill="#682AE9"/>
<path d="M14.7989 344.203C17.7725 346.418 30.4948 347.418 30.4948 347.418C30.4948 347.418 25.8212 335.574 22.8228 333.36C21.3841 332.296 19.5817 331.847 17.812 332.112C16.0424 332.377 14.4504 333.333 13.3864 334.771C12.3223 336.209 11.8734 338.011 12.1383 339.78C12.4032 341.549 13.3602 343.14 14.7989 344.203Z" fill="#682AE9"/>
<path opacity="0.25" d="M41.1405 251.855C41.1405 255.58 34.3952 266.38 34.3952 266.38C34.3952 266.38 27.65 255.58 27.65 251.855C27.65 250.066 28.3609 248.351 29.6264 247.086C30.8918 245.821 32.6081 245.11 34.3977 245.11C36.1873 245.11 37.9036 245.821 39.1691 247.086C40.4345 248.351 41.1454 250.066 41.1454 251.855H41.1405Z" fill="black"/>
<path opacity="0.25" d="M52.2917 272.502C50.2646 275.628 38.7318 281.028 38.7318 281.028C38.7318 281.028 38.94 268.297 40.967 265.176C41.4486 264.432 42.072 263.791 42.8015 263.289C43.531 262.786 44.3524 262.433 45.2188 262.247C46.0851 262.062 46.9795 262.049 47.8508 262.21C48.7221 262.37 49.5532 262.7 50.2968 263.182C51.0404 263.663 51.6819 264.286 52.1845 265.015C52.6872 265.745 53.0413 266.566 53.2265 267.432C53.4118 268.298 53.4245 269.192 53.2641 270.062C53.1037 270.933 52.7733 271.764 52.2917 272.507V272.502Z" fill="black"/>
<path opacity="0.25" d="M51.806 307.753C48.4804 309.433 35.7929 308.249 35.7929 308.249C35.7929 308.249 42.4043 297.351 45.7298 295.686C47.3275 294.881 49.1798 294.743 50.8793 295.302C52.5788 295.862 53.9862 297.074 54.792 298.671C55.5977 300.268 55.7358 302.119 55.1758 303.818C54.6158 305.517 53.4037 306.923 51.806 307.729V307.753Z" fill="black"/>
<path opacity="0.25" d="M45.4275 334.345C42.4538 336.56 29.7316 337.56 29.7316 337.56C29.7316 337.56 34.4051 325.716 37.4036 323.502C38.1159 322.975 38.9251 322.594 39.7848 322.38C40.6446 322.166 41.5381 322.123 42.4143 322.254C43.2906 322.385 44.1324 322.687 44.8917 323.144C45.6511 323.6 46.3131 324.201 46.84 324.913C47.3668 325.625 47.7482 326.434 47.9624 327.293C48.1765 328.153 48.2192 329.046 48.0881 329.922C47.9569 330.798 47.6544 331.639 47.1979 332.398C46.7414 333.157 46.1398 333.819 45.4275 334.345Z" fill="black"/>
<path opacity="0.25" d="M24.5673 281.751C27.2386 284.347 39.6933 287.037 39.6933 287.037C39.6933 287.037 36.6453 274.652 33.969 272.076C33.3335 271.458 32.5823 270.972 31.7586 270.644C30.9348 270.316 30.0545 270.153 29.1679 270.165C28.2813 270.178 27.4057 270.364 26.5913 270.715C25.7768 271.065 25.0394 271.572 24.4211 272.208C23.8028 272.843 23.3157 273.594 22.9877 274.417C22.6597 275.24 22.4971 276.12 22.5093 277.007C22.5215 277.893 22.7082 278.768 23.0588 279.582C23.4094 280.396 23.9169 281.133 24.5524 281.751H24.5673Z" fill="black"/>
<path opacity="0.25" d="M17.4999 312.945C20.8255 314.624 33.5131 313.44 33.5131 313.44C33.5131 313.44 26.9016 302.542 23.5761 300.878C21.9784 300.072 20.1261 299.934 18.4266 300.494C16.7271 301.054 15.3196 302.265 14.5139 303.862C13.7081 305.459 13.5701 307.311 14.1301 309.009C14.6901 310.708 15.9022 312.115 17.4999 312.92V312.945Z" fill="black"/>
<path opacity="0.25" d="M14.7989 344.203C17.7725 346.418 30.4948 347.418 30.4948 347.418C30.4948 347.418 25.8212 335.574 22.8228 333.36C21.3841 332.296 19.5817 331.847 17.812 332.112C16.0424 332.377 14.4504 333.333 13.3864 334.771C12.3223 336.209 11.8734 338.011 12.1383 339.78C12.4032 341.549 13.3602 343.14 14.7989 344.203Z" fill="black"/>
<path d="M53.947 363.592C53.947 363.592 44.9913 333.201 55.6271 310.835C60.1481 301.481 61.5115 290.915 59.5127 280.721C58.525 275.889 57.0967 271.158 55.2455 266.588" stroke="#535461" stroke-width="2" stroke-miterlimit="10"/>
<path d="M61.8618 252.449C61.8618 256.175 55.1166 266.974 55.1166 266.974C55.1166 266.974 48.3714 256.175 48.3714 252.449C48.3714 250.661 49.0823 248.945 50.3477 247.68C51.6132 246.416 53.3295 245.705 55.1191 245.705C56.9087 245.705 58.625 246.416 59.8904 247.68C61.1559 248.945 61.8668 250.661 61.8668 252.449H61.8618Z" fill="#682AE9"/>
<path d="M73.018 273.077C70.991 276.203 59.4582 281.602 59.4582 281.602C59.4582 281.602 59.6663 268.871 61.6934 265.75C62.666 264.249 64.1954 263.196 65.9451 262.822C67.6948 262.448 69.5214 262.784 71.0232 263.756C72.5249 264.729 73.5788 266.257 73.9529 268.006C74.327 269.755 73.9907 271.581 73.018 273.082V273.077Z" fill="#682AE9"/>
<path d="M72.5274 308.328C69.2018 310.007 56.5142 308.824 56.5142 308.824C56.5142 308.824 63.1257 297.925 66.4512 296.261C67.2439 295.862 68.1075 295.623 68.9925 295.558C69.8776 295.493 70.7668 295.602 71.6095 295.881C72.4521 296.159 73.2317 296.6 73.9037 297.18C74.5756 297.759 75.1268 298.465 75.5258 299.258C75.9248 300.05 76.1637 300.913 76.2289 301.798C76.2941 302.683 76.1844 303.571 75.906 304.414C75.6276 305.256 75.1859 306.035 74.6062 306.707C74.0265 307.378 73.3201 307.929 72.5274 308.328Z" fill="#682AE9"/>
<path d="M66.1489 334.925C63.1752 337.139 50.4529 338.14 50.4529 338.14C50.4529 338.14 55.1265 326.295 58.125 324.081C58.8373 323.555 59.6465 323.173 60.5062 322.959C61.3659 322.745 62.2594 322.703 63.1357 322.834C64.0119 322.965 64.8538 323.267 65.6131 323.723C66.3725 324.18 67.0345 324.781 67.5613 325.493C68.0882 326.205 68.4696 327.014 68.6837 327.873C68.8979 328.732 68.9406 329.625 68.8094 330.501C68.6783 331.377 68.3758 332.219 67.9193 332.978C67.4628 333.737 66.8612 334.398 66.1489 334.925Z" fill="#682AE9"/>
<path d="M45.2986 282.326C47.97 284.921 60.4246 287.611 60.4246 287.611C60.4246 287.611 57.3766 275.227 54.7003 272.651C54.0648 272.033 53.3137 271.546 52.4899 271.218C51.6661 270.89 50.7858 270.728 49.8992 270.74C49.0126 270.752 48.137 270.939 47.3226 271.289C46.5081 271.64 45.7707 272.147 45.1524 272.782C44.5341 273.418 44.0471 274.168 43.719 274.992C43.391 275.815 43.2285 276.695 43.2407 277.581C43.2529 278.467 43.4396 279.342 43.7901 280.157C44.1407 280.971 44.6482 281.708 45.2838 282.326H45.2986Z" fill="#682AE9"/>
<path d="M38.2213 313.52C41.5469 315.199 54.2344 314.015 54.2344 314.015C54.2344 314.015 47.623 303.117 44.2975 301.452C42.6998 300.647 40.8474 300.509 39.148 301.069C37.4485 301.628 36.041 302.84 35.2353 304.437C34.4295 306.034 34.2915 307.885 34.8515 309.584C35.4115 311.283 36.6236 312.69 38.2213 313.495V313.52Z" fill="#682AE9"/>
<path d="M35.5203 344.783C38.4939 346.997 51.2162 347.998 51.2162 347.998C51.2162 347.998 46.5426 336.153 43.5442 333.939C42.1055 332.876 40.3031 332.427 38.5334 332.692C36.7638 332.956 35.1718 333.913 34.1078 335.351C33.0437 336.789 32.5948 338.591 32.8597 340.359C33.1246 342.128 34.0816 343.719 35.5203 344.783Z" fill="#682AE9"/>
<path d="M484.477 362.532H12.1622V366H484.477V362.532Z" fill="#682AE9"/>
<path d="M445.033 46.0701H90.3399C88.9889 46.0712 87.6936 46.5538 86.7383 47.4119C85.783 48.27 85.2458 49.4335 85.2447 50.6471V266.541C85.2458 267.754 85.783 268.918 86.7383 269.776C87.6936 270.634 88.9889 271.117 90.3399 271.118H445.033C445.769 271.118 446.497 270.974 447.166 270.697C447.835 270.42 448.429 270.015 448.907 269.512C448.947 269.472 448.984 269.43 449.018 269.386C449.322 269.052 449.568 268.678 449.748 268.278C450.005 267.728 450.136 267.137 450.134 266.541V50.6471C450.132 49.4327 449.594 48.2685 448.638 47.4103C447.681 46.5521 446.384 46.0701 445.033 46.0701ZM448.679 266.541C448.679 267.179 448.47 267.804 448.077 268.336C447.728 268.804 447.254 269.187 446.698 269.449C446.183 269.688 445.612 269.812 445.033 269.811H90.3399C89.3748 269.81 88.4495 269.465 87.767 268.852C87.0846 268.239 86.7007 267.408 86.6995 266.541V50.6471C86.7007 49.7802 87.0846 48.949 87.767 48.336C88.4495 47.723 89.3748 47.3781 90.3399 47.3771H445.033C445.999 47.377 446.925 47.7213 447.609 48.3344C448.293 48.9475 448.677 49.7793 448.679 50.6471V266.541Z" fill="#3F3D56"/>
<path d="M449.403 64.4143H85.9708V65.7227H449.403V64.4143Z" fill="#3F3D56"/>
<path d="M98.3522 59.8086C100.766 59.8086 102.722 58.0512 102.722 55.8833C102.722 53.7155 100.766 51.9581 98.3522 51.9581C95.9388 51.9581 93.9823 53.7155 93.9823 55.8833C93.9823 58.0512 95.9388 59.8086 98.3522 59.8086Z" fill="#3F3D56"/>
<path d="M110.916 59.8086C113.329 59.8086 115.286 58.0512 115.286 55.8833C115.286 53.7155 113.329 51.9581 110.916 51.9581C108.502 51.9581 106.546 53.7155 106.546 55.8833C106.546 58.0512 108.502 59.8086 110.916 59.8086Z" fill="#3F3D56"/>
<path d="M123.479 59.8086C125.893 59.8086 127.849 58.0512 127.849 55.8833C127.849 53.7155 125.893 51.9581 123.479 51.9581C121.066 51.9581 119.109 53.7155 119.109 55.8833C119.109 58.0512 121.066 59.8086 123.479 59.8086Z" fill="#3F3D56"/>
<path d="M406.306 159.272H122.902C120.269 159.269 117.744 158.328 115.882 156.655C114.019 154.983 112.972 152.714 112.969 150.349V96.2861C112.972 93.9204 114.019 91.6524 115.882 89.9796C117.744 88.3068 120.269 87.3658 122.902 87.3632H406.306C408.94 87.3658 411.465 88.3068 413.327 89.9796C415.189 91.6524 416.237 93.9204 416.24 96.2861V150.349C416.237 152.714 415.189 154.983 413.327 156.655C411.465 158.328 408.94 159.269 406.306 159.272ZM122.902 88.4129C120.579 88.4153 118.351 89.2455 116.708 90.7215C115.064 92.1975 114.14 94.1987 114.137 96.2861V150.349C114.14 152.436 115.064 154.437 116.708 155.913C118.351 157.389 120.579 158.22 122.902 158.222H406.306C408.63 158.22 410.858 157.389 412.501 155.913C414.144 154.437 415.068 152.436 415.071 150.349V96.2861C415.068 94.1987 414.144 92.1975 412.501 90.7215C410.858 89.2455 408.63 88.4153 406.306 88.4129H122.902Z" fill="#F2F2F2"/>
<path d="M185.427 256.899H122.902C120.269 256.897 117.744 255.956 115.882 254.283C114.019 252.61 112.972 250.342 112.969 247.976V208.086C112.972 205.72 114.019 203.452 115.882 201.779C117.744 200.106 120.269 199.165 122.902 199.163H185.427C188.06 199.165 190.585 200.106 192.447 201.779C194.31 203.452 195.357 205.72 195.36 208.086V247.976C195.357 250.342 194.31 252.61 192.447 254.283C190.585 255.956 188.06 256.897 185.427 256.899ZM122.902 200.212C120.579 200.215 118.351 201.045 116.708 202.521C115.064 203.997 114.14 205.998 114.137 208.086V247.976C114.14 250.064 115.064 252.065 116.708 253.541C118.351 255.017 120.579 255.847 122.902 255.85H185.427C187.75 255.847 189.978 255.017 191.621 253.541C193.265 252.065 194.189 250.064 194.192 247.976V208.086C194.189 205.998 193.265 203.997 191.621 202.521C189.978 201.045 187.75 200.215 185.427 200.212H122.902Z" fill="#F2F2F2"/>
<path d="M406.306 256.899H343.782C341.148 256.897 338.623 255.956 336.761 254.283C334.899 252.61 333.851 250.342 333.848 247.976V208.086C333.851 205.72 334.899 203.452 336.761 201.779C338.623 200.106 341.148 199.165 343.782 199.163H406.306C408.94 199.165 411.465 200.106 413.327 201.779C415.189 203.452 416.237 205.72 416.24 208.086V247.976C416.237 250.342 415.189 252.61 413.327 254.283C411.465 255.956 408.94 256.897 406.306 256.899ZM343.782 200.212C341.458 200.215 339.23 201.045 337.587 202.521C335.944 203.997 335.019 205.998 335.017 208.086V247.976C335.019 250.064 335.944 252.065 337.587 253.541C339.23 255.017 341.458 255.847 343.782 255.85H406.306C408.63 255.847 410.858 255.017 412.501 253.541C414.144 252.065 415.068 250.064 415.071 247.976V208.086C415.068 205.998 414.144 203.997 412.501 202.521C410.858 201.045 408.63 200.215 406.306 200.212H343.782Z" fill="#F2F2F2"/>
<path d="M300.541 256.899H238.017C235.383 256.897 232.858 255.956 230.996 254.283C229.134 252.61 228.086 250.342 228.083 247.976V208.086C228.086 205.72 229.134 203.452 230.996 201.779C232.858 200.106 235.383 199.165 238.017 199.163H300.541C303.175 199.165 305.7 200.106 307.562 201.779C309.424 203.452 310.472 205.72 310.475 208.086V247.976C310.472 250.342 309.424 252.61 307.562 254.283C305.7 255.956 303.175 256.897 300.541 256.899ZM238.017 200.212C235.693 200.215 233.465 201.045 231.822 202.521C230.179 203.997 229.255 205.998 229.252 208.086V247.976C229.255 250.064 230.179 252.065 231.822 253.541C233.465 255.017 235.693 255.847 238.017 255.85H300.541C302.865 255.847 305.093 255.017 306.736 253.541C308.379 252.065 309.303 250.064 309.306 247.976V208.086C309.303 205.998 308.379 203.997 306.736 202.521C305.093 201.045 302.865 200.215 300.541 200.212H238.017Z" fill="#F2F2F2"/>
<path d="M116.446 89.8248L116.168 90.8443L415.516 156.632L415.794 155.613L116.446 89.8248Z" fill="#F2F2F2"/>
<path d="M412.756 89.8086L116.171 155.807L116.452 156.826L413.037 90.8276L412.756 89.8086Z" fill="#F2F2F2"/>
<path d="M417.993 177.38H134.589C132.033 177.377 129.582 176.464 127.775 174.841C125.967 173.217 124.951 171.016 124.948 168.719V114.657C124.951 112.361 125.967 110.159 127.775 108.536C129.582 106.912 132.033 105.999 134.589 105.996H417.993C420.549 105.999 423 106.912 424.807 108.536C426.615 110.159 427.631 112.361 427.634 114.657V168.719C427.631 171.016 426.615 173.217 424.807 174.84C423 176.464 420.549 177.377 417.993 177.38Z" fill="white"/>
<path d="M232.002 201.533L231.283 202.36L306.175 254.837L306.894 254.009L232.002 201.533Z" fill="#F2F2F2"/>
<path d="M306.549 201.533L232.64 254.657L233.37 255.476L307.279 202.353L306.549 201.533Z" fill="#F2F2F2"/>
<path d="M116.887 201.533L116.168 202.361L191.06 254.837L191.779 254.01L116.887 201.533Z" fill="#F2F2F2"/>
<path d="M191.435 201.533L117.526 254.657L118.256 255.476L192.165 202.353L191.435 201.533Z" fill="#F2F2F2"/>
<path d="M337.768 201.532L337.049 202.36L411.941 254.837L412.66 254.009L337.768 201.532Z" fill="#F2F2F2"/>
<path d="M412.314 201.533L338.405 254.657L339.135 255.476L413.044 202.353L412.314 201.533Z" fill="#F2F2F2"/>
<path d="M309.306 294.953H246.782C244.226 294.951 241.775 294.037 239.968 292.414C238.16 290.79 237.143 288.589 237.14 286.293V246.402C237.143 244.106 238.16 241.904 239.968 240.281C241.775 238.657 244.226 237.744 246.782 237.741H309.306C311.862 237.744 314.313 238.657 316.12 240.281C317.928 241.904 318.945 244.106 318.948 246.402V286.293C318.945 288.589 317.928 290.79 316.12 292.414C314.313 294.037 311.862 294.951 309.306 294.953Z" fill="#682AE9"/>
<path d="M341.962 295.741H213.992C213.837 295.741 213.689 295.685 213.579 295.587C213.47 295.488 213.408 295.355 213.408 295.216C213.408 295.076 213.47 294.943 213.579 294.845C213.689 294.746 213.837 294.691 213.992 294.691H341.962C342.117 294.691 342.266 294.746 342.375 294.845C342.485 294.943 342.546 295.076 342.546 295.216C342.546 295.355 342.485 295.488 342.375 295.587C342.266 295.685 342.117 295.741 341.962 295.741Z" fill="#CCCCCC"/>
<path d="M286.197 263.46H269.836C268.596 263.46 267.407 263.018 266.53 262.231C265.653 261.443 265.161 260.375 265.161 259.261C265.161 258.148 265.653 257.08 266.53 256.292C267.407 255.505 268.596 255.062 269.836 255.062H286.197C287.437 255.062 288.626 255.505 289.503 256.292C290.379 257.08 290.872 258.148 290.872 259.261C290.872 260.375 290.379 261.443 289.503 262.231C288.626 263.018 287.437 263.46 286.197 263.46Z" fill="white"/>
<path d="M295.866 277.632H260.222C258.982 277.632 257.793 277.19 256.916 276.402C256.04 275.615 255.547 274.547 255.547 273.433C255.547 272.319 256.04 271.251 256.916 270.464C257.793 269.676 258.982 269.234 260.222 269.234H295.866C297.106 269.234 298.295 269.676 299.172 270.464C300.048 271.251 300.541 272.319 300.541 273.433C300.541 274.547 300.048 275.615 299.172 276.402C298.295 277.19 297.106 277.632 295.866 277.632Z" fill="white"/>
<path d="M195.36 264.51H132.836C130.28 264.508 127.829 263.594 126.022 261.971C124.214 260.347 123.197 258.146 123.195 255.85V215.959C123.197 213.663 124.214 211.461 126.022 209.838C127.829 208.214 130.28 207.301 132.836 207.298H195.36C197.916 207.301 200.367 208.214 202.175 209.838C203.982 211.461 204.999 213.663 205.002 215.959V255.85C204.999 258.146 203.982 260.347 202.175 261.971C200.367 263.594 197.916 264.508 195.36 264.51Z" fill="#682AE9"/>
<path d="M172.251 233.017H155.89C154.65 233.017 153.461 232.575 152.584 231.788C151.708 231 151.215 229.932 151.215 228.818C151.215 227.705 151.708 226.637 152.584 225.849C153.461 225.062 154.65 224.619 155.89 224.619H172.251C173.491 224.619 174.68 225.062 175.557 225.849C176.434 226.637 176.926 227.705 176.926 228.818C176.926 229.932 176.434 231 175.557 231.788C174.68 232.575 173.491 233.017 172.251 233.017Z" fill="white"/>
<path d="M181.921 247.189H146.276C145.036 247.189 143.847 246.747 142.97 245.959C142.094 245.172 141.601 244.104 141.601 242.99C141.601 241.876 142.094 240.808 142.97 240.021C143.847 239.233 145.036 238.791 146.276 238.791H181.921C183.16 238.791 184.349 239.233 185.226 240.021C186.103 240.808 186.595 241.876 186.595 242.99C186.595 244.104 186.103 245.172 185.226 245.959C184.349 246.747 183.16 247.189 181.921 247.189Z" fill="white"/>
<path d="M419.746 279.732H357.222C354.665 279.729 352.215 278.816 350.407 277.192C348.6 275.569 347.583 273.367 347.58 271.071V231.18C347.583 228.884 348.6 226.683 350.407 225.059C352.215 223.436 354.665 222.522 357.222 222.52H419.746C422.302 222.522 424.753 223.436 426.56 225.059C428.368 226.683 429.384 228.884 429.387 231.18V271.071C429.384 273.367 428.368 275.569 426.56 277.192C424.753 278.816 422.302 279.729 419.746 279.732Z" fill="#E6E6E6"/>
<path d="M396.637 248.239H380.275C379.035 248.239 377.846 247.797 376.97 247.009C376.093 246.222 375.601 245.154 375.601 244.04C375.601 242.926 376.093 241.858 376.97 241.071C377.846 240.283 379.035 239.841 380.275 239.841H396.637C397.877 239.841 399.066 240.283 399.942 241.071C400.819 241.858 401.311 242.926 401.311 244.04C401.311 245.154 400.819 246.222 399.942 247.009C399.066 247.797 397.877 248.239 396.637 248.239Z" fill="white"/>
<path d="M406.306 262.411H370.661C369.422 262.411 368.232 261.968 367.356 261.181C366.479 260.393 365.987 259.325 365.987 258.212C365.987 257.098 366.479 256.03 367.356 255.242C368.232 254.455 369.422 254.013 370.661 254.013H406.306C407.546 254.013 408.735 254.455 409.611 255.242C410.488 256.03 410.981 257.098 410.981 258.212C410.981 259.325 410.488 260.393 409.611 261.181C408.735 261.968 407.546 262.411 406.306 262.411Z" fill="white"/>
<path d="M452.402 280.519H324.432C324.277 280.519 324.128 280.464 324.019 280.365C323.909 280.267 323.848 280.133 323.848 279.994C323.848 279.855 323.909 279.721 324.019 279.623C324.128 279.525 324.277 279.469 324.432 279.469H452.402C452.557 279.469 452.705 279.525 452.815 279.623C452.925 279.721 452.986 279.855 452.986 279.994C452.986 280.133 452.925 280.267 452.815 280.365C452.705 280.464 452.557 280.519 452.402 280.519Z" fill="#CCCCCC"/>
<path d="M339.849 176.454V177.118H214.976V176.423L215.649 175.569L255.237 125.365C255.421 125.137 255.662 124.951 255.941 124.823C256.219 124.695 256.528 124.628 256.841 124.628C257.155 124.628 257.463 124.695 257.742 124.823C258.021 124.951 258.262 125.137 258.445 125.365L284.992 159.03L303.889 135.276C304.073 135.049 304.313 134.865 304.592 134.737C304.87 134.61 305.178 134.543 305.49 134.543C305.803 134.543 306.111 134.61 306.389 134.737C306.667 134.865 306.908 135.049 307.091 135.276L339.177 175.605L339.849 176.454Z" fill="#682AE9"/>
<path d="M214.717 143.051C222.745 143.051 229.252 137.206 229.252 129.996C229.252 122.786 222.745 116.94 214.717 116.94C206.69 116.94 200.183 122.786 200.183 129.996C200.183 137.206 206.69 143.051 214.717 143.051Z" fill="#682AE9"/>
<path d="M417.993 177.643H134.589C131.955 177.64 129.431 176.699 127.568 175.026C125.706 173.353 124.658 171.085 124.655 168.72V114.657C124.658 112.291 125.706 110.023 127.568 108.35C129.431 106.678 131.955 105.737 134.589 105.734H417.993C420.626 105.737 423.151 106.678 425.014 108.35C426.876 110.023 427.923 112.291 427.926 114.657V168.72C427.923 171.085 426.876 173.353 425.014 175.026C423.151 176.699 420.626 177.64 417.993 177.643ZM134.589 106.784C132.265 106.786 130.037 107.616 128.394 109.092C126.751 110.568 125.827 112.57 125.824 114.657V168.72C125.827 170.807 126.751 172.808 128.394 174.284C130.037 175.76 132.265 176.59 134.589 176.593H417.993C420.316 176.59 422.544 175.76 424.188 174.284C425.831 172.808 426.755 170.807 426.758 168.72V114.657C426.755 112.57 425.831 110.568 424.188 109.092C422.544 107.616 420.316 106.786 417.993 106.784H134.589Z" fill="#3F3D56"/>
<path d="M446.147 168.84H346.049V291.792H446.147V168.84Z" fill="url(#paint1_linear)"/>
<path d="M444.576 170.772H347.62V289.865H444.576V170.772Z" fill="#682AE9"/>
<path d="M373.956 181.224H354.132V201.039H373.956V181.224Z" fill="#E8EAF1"/>
<path d="M434.421 212.928H364.044V216.891H434.421V212.928Z" fill="#E8EAF1"/>
<path d="M434.421 221.35H364.044V225.313H434.421V221.35Z" fill="#E8EAF1"/>
<path d="M434.421 229.771H364.044V233.734H434.421V229.771Z" fill="#E8EAF1"/>
<path d="M434.421 238.193H364.044V242.156H434.421V238.193Z" fill="#E8EAF1"/>
<path d="M434.421 246.614H364.044V250.577H434.421V246.614Z" fill="#E8EAF1"/>
<path d="M434.421 255.035H364.044V258.998H434.421V255.035Z" fill="#E8EAF1"/>
<path d="M434.421 263.457H364.044V267.42H434.421V263.457Z" fill="#E8EAF1"/>
<path opacity="0.1" d="M298.555 362.245L290.209 363.052L278.641 360.343L275.142 356.875L275.429 356.018L278.646 358.495C278.646 358.495 284.593 361.725 287.532 361.185H295.878L294.263 359.03L295.715 356.791C296.281 356.981 296.79 357.31 297.195 357.748C297.6 358.186 297.889 358.719 298.034 359.298L298.555 362.245Z" fill="black"/>
<path d="M136.416 284.013C136.421 283.121 136.237 282.238 135.877 281.422C135.517 280.605 134.988 279.875 134.326 279.277C133.663 278.679 132.882 278.228 132.033 277.954C131.184 277.679 130.287 277.586 129.399 277.682C129.119 277.714 128.841 277.765 128.567 277.836L107.129 259.468L108.41 252.566L97.8433 249.143L94.6574 260.204C94.2806 261.532 94.342 262.945 94.8325 264.235C95.323 265.525 96.2166 266.623 97.3805 267.365L123.753 284.037C123.753 284.244 123.764 284.452 123.786 284.658C123.882 285.545 124.165 286.401 124.615 287.171C125.066 287.941 125.674 288.608 126.4 289.126C127.126 289.645 127.954 290.004 128.829 290.181C129.703 290.358 130.606 290.348 131.476 290.152C131.729 290.096 131.979 290.024 132.223 289.936C133.443 289.495 134.5 288.691 135.249 287.632C135.999 286.573 136.406 285.31 136.416 284.013Z" fill="#9F616A"/>
<path d="M83.1181 305.315H110.759C110.759 306.109 139.246 306.753 139.246 306.753C139.693 307.09 140.101 307.476 140.461 307.904C141.543 309.194 142.134 310.825 142.131 312.508V313.659C142.13 315.566 141.372 317.396 140.022 318.744C138.673 320.093 136.843 320.851 134.934 320.852H83.1181C81.2099 320.85 79.3804 320.092 78.0311 318.743C76.6818 317.395 75.9231 315.566 75.9214 313.659V312.508C75.924 310.601 76.6831 308.773 78.0322 307.424C79.3812 306.076 81.2102 305.317 83.1181 305.315Z" fill="#3F3D56"/>
<path d="M113.185 320.566H105.7V368.905H113.185V320.566Z" fill="#3F3D56"/>
<path d="M134.487 369.507C134.487 370.412 123.145 369.857 109.155 369.857C95.1642 369.857 83.8225 370.412 83.8225 369.507C83.8225 368.602 95.1642 361.425 109.155 361.425C123.145 361.425 134.487 368.602 134.487 369.507Z" fill="#3F3D56"/>
<path d="M127.731 362.977L134.789 362.976L138.147 344.678L127.729 344.679L127.731 362.977Z" fill="#9F616A"/>
<path d="M125.93 369.816L148.689 369.815V369.527C148.689 368.364 148.46 367.213 148.015 366.139C147.57 365.065 146.918 364.088 146.095 363.266C145.272 362.444 144.296 361.792 143.221 361.347C142.146 360.902 140.995 360.673 139.831 360.673H139.83L125.93 360.673L125.93 369.816Z" fill="#2F2E41"/>
<path d="M138.287 351.63L152.359 320.09C153.534 317.432 153.664 314.429 152.723 311.679C151.782 308.929 149.839 306.635 147.282 305.252L116.76 288.893L102.832 287.709L89.9851 286.542L89.8925 286.698C89.774 286.898 87.0117 291.667 88.8789 296.897C90.2952 300.863 93.9793 303.961 99.8287 306.105C113.482 311.109 129.254 315.386 135.401 316.992C135.673 317.061 135.927 317.188 136.146 317.362C136.366 317.537 136.546 317.756 136.674 318.005C136.803 318.251 136.88 318.521 136.899 318.798C136.919 319.075 136.881 319.354 136.787 319.615L123.714 348.972C123.578 349.345 123.529 349.744 123.571 350.138C123.613 350.532 123.745 350.912 123.957 351.247C124.169 351.582 124.455 351.864 124.793 352.071C125.131 352.279 125.512 352.405 125.908 352.442L135.676 353.153C135.759 353.161 135.841 353.165 135.923 353.165C136.424 353.165 136.913 353.02 137.333 352.747C137.752 352.475 138.084 352.087 138.287 351.63Z" fill="#CBCBCB"/>
<path d="M123.125 362.977L130.183 362.976L133.541 344.678L123.124 344.679L123.125 362.977Z" fill="#9F616A"/>
<path d="M121.324 369.816L144.084 369.815V369.527C144.084 368.364 143.854 367.213 143.409 366.139C142.964 365.065 142.312 364.088 141.489 363.266C140.667 362.444 139.69 361.792 138.615 361.347C137.541 360.902 136.389 360.673 135.225 360.673H135.224L121.324 360.673L121.324 369.816Z" fill="#2F2E41"/>
<path d="M133.106 353.356L147.177 321.816C148.352 319.158 148.482 316.155 147.541 313.405C146.6 310.656 144.658 308.361 142.1 306.979L111.579 290.619L97.6508 289.435L87.5882 288.563L87.5896 288.425C87.4711 288.625 84.7088 293.394 86.576 298.623C87.9923 302.589 88.7977 305.688 94.6471 307.832C108.3 312.835 124.072 317.112 130.22 318.718C130.491 318.788 130.745 318.914 130.965 319.088C131.184 319.263 131.364 319.482 131.493 319.731C131.622 319.977 131.698 320.247 131.718 320.524C131.737 320.802 131.699 321.08 131.606 321.342L118.533 350.699C118.396 351.071 118.347 351.47 118.389 351.864C118.431 352.258 118.563 352.638 118.775 352.973C118.987 353.308 119.273 353.591 119.611 353.798C119.95 354.005 120.331 354.132 120.726 354.168L130.494 354.879C130.577 354.887 130.66 354.891 130.742 354.891C131.242 354.891 131.732 354.746 132.151 354.474C132.571 354.201 132.902 353.813 133.106 353.356Z" fill="#CBCBCB"/>
<path d="M106.587 289.138C107.262 288.661 116.951 293.742 118.678 289.714C110.618 269.572 116.172 260.875 111.235 249.325C110.365 247.333 109.055 245.564 107.403 244.15C105.751 242.737 103.8 241.716 101.697 241.165L88.8867 240.519L88.8204 240.551C85.9297 241.966 83.5724 244.275 82.0977 247.134C80.6231 249.994 80.1098 253.253 80.6338 256.427C80.6794 268.997 88.2038 278.584 85.5728 287.701C85.4625 288.082 85.4303 288.482 85.4782 288.876C85.5261 289.27 85.653 289.65 85.8514 289.994C86.0438 290.326 86.3022 290.615 86.6107 290.844C86.9192 291.072 87.2713 291.235 87.6453 291.322L104.559 289.067C104.955 289.161 105.365 289.17 105.764 289.093C106.163 289.016 106.54 288.854 106.872 288.62L106.587 289.138Z" fill="#2F2E41"/>
<path d="M93.1617 235.736C100.971 235.736 107.302 229.408 107.302 221.602C107.302 213.796 100.971 207.468 93.1617 207.468C85.3521 207.468 79.0211 213.796 79.0211 221.602C79.0211 229.408 85.3521 235.736 93.1617 235.736Z" fill="#9F616A"/>
<path d="M88.6576 234.576C89.4089 234.904 90.9475 228.92 90.2583 227.724C89.2334 225.944 89.2939 225.956 88.6135 224.779C87.9331 223.601 87.7809 221.99 88.662 220.953C89.5431 219.917 91.5821 220.055 91.9842 221.354C91.7255 218.886 94.1673 216.903 96.586 216.345C99.0047 215.788 101.556 216.134 103.988 215.638C106.811 215.062 109.747 212.698 108.621 209.595C108.428 209.079 108.139 208.604 107.768 208.195C106.467 206.732 104.647 206.108 102.868 205.504C99.1657 204.248 95.3625 202.977 91.4555 203.115C85.036 203.343 78.968 207.779 76.8052 213.824C76.536 214.579 76.3274 215.353 76.1814 216.141C74.8404 223.348 79.0277 230.457 85.8286 233.202L88.6576 234.576Z" fill="#2F2E41"/>
<path d="M162.814 257.304L164.435 266.928C164.453 267.036 164.441 267.146 164.401 267.247L151.679 299.02C151.629 299.145 151.537 299.25 151.418 299.316C151.3 299.383 151.163 299.406 151.029 299.383C150.895 299.361 150.774 299.293 150.684 299.191C150.594 299.089 150.542 298.96 150.537 298.824L149.998 286.056C149.994 285.972 150.009 285.887 150.041 285.808L161.68 257.18C161.729 257.06 161.815 256.96 161.926 256.894C162.036 256.828 162.166 256.8 162.294 256.814C162.422 256.828 162.542 256.883 162.636 256.972C162.73 257.06 162.792 257.177 162.814 257.304Z" fill="#3F3D56"/>
<path d="M161.913 258.043L163.454 266.311L152.164 295.305L150.698 285.978L161.913 258.043Z" fill="#682AE9"/>
<path d="M112.519 298.872C112.797 299.956 149.266 301.129 149.644 300.801C149.983 300.381 150.277 299.926 150.521 299.444C150.903 298.762 151.257 298.078 151.257 298.078L150.658 286.55L114.733 282.712C114.733 282.712 113.144 292.333 112.645 296.752C112.532 297.453 112.49 298.163 112.519 298.872Z" fill="#3F3D56"/>
<path opacity="0.1" d="M145.958 287.769L145.961 297.701L130.072 296.572L130.775 286.69L145.958 287.769Z" fill="black"/>
<path opacity="0.1" d="M125.252 289.49L125.348 289.478L124.598 293.7L115.771 293.073L116.072 288.838L125.252 289.49Z" fill="black"/>
<path opacity="0.1" d="M112.519 298.872C112.797 299.956 149.266 301.129 149.644 300.801C149.983 300.381 150.277 299.926 150.521 299.444L112.645 296.752C112.532 297.453 112.49 298.163 112.519 298.872Z" fill="black"/>
<path d="M97.8755 281.656L128.639 287.395C128.716 287.587 128.802 287.776 128.899 287.96C129.317 288.746 129.895 289.435 130.597 289.983C131.299 290.531 132.109 290.925 132.973 291.139C133.841 291.358 134.745 291.388 135.626 291.228C136.506 291.069 137.342 290.723 138.078 290.215C139.411 289.3 140.344 287.91 140.685 286.33C141.026 284.75 140.749 283.099 139.911 281.717C139.074 280.334 137.739 279.324 136.18 278.893C134.621 278.463 132.957 278.645 131.528 279.402C131.279 279.535 131.04 279.686 130.812 279.852L104.092 270.729L102.724 263.843L91.6405 264.576L92.789 276.119C92.9283 277.466 93.4984 278.732 94.4147 279.73C95.331 280.727 96.5446 281.403 97.8755 281.656Z" fill="#9F616A"/>
<path d="M91.2651 269.725L107.37 264.434L103.613 253.652C103.114 252.221 102.125 251.011 100.821 250.238C99.5161 249.465 97.9801 249.177 96.484 249.427C94.9706 249.679 93.5972 250.463 92.612 251.639C91.6268 252.815 91.0946 254.304 91.1115 255.837L91.2651 269.725Z" fill="#2F2E41"/>
<path d="M426.821 347.505C435.878 352.19 439.905 362.39 439.905 362.39C439.905 362.39 429.248 364.995 420.191 360.31C411.135 355.625 407.108 345.425 407.108 345.425C407.108 345.425 417.765 342.82 426.821 347.505Z" fill="#42179C"/>
<path d="M423.925 350.879C429.33 359.523 439.827 362.709 439.827 362.709C439.827 362.709 441.563 351.882 436.158 343.238C430.754 334.594 420.256 331.408 420.256 331.408C420.256 331.408 418.521 342.236 423.925 350.879Z" fill="#682AE9"/>
</g>
<defs>
<linearGradient id="paint0_linear" x1="264.923" y1="271.878" x2="264.923" y2="43.509" gradientUnits="userSpaceOnUse">
<stop stop-color="#808080" stop-opacity="0.25"/>
<stop offset="0.54" stop-color="#808080" stop-opacity="0.12"/>
<stop offset="1" stop-color="#808080" stop-opacity="0.1"/>
</linearGradient>
<linearGradient id="paint1_linear" x1="80345.4" y1="72591.7" x2="80345.4" y2="42074.8" gradientUnits="userSpaceOnUse">
<stop stop-color="#808080" stop-opacity="0.25"/>
<stop offset="0.54" stop-color="#808080" stop-opacity="0.12"/>
<stop offset="1" stop-color="#808080" stop-opacity="0.1"/>
</linearGradient>
<clipPath id="clip0">
<rect width="496" height="366" fill="white"/>
</clipPath>
</defs>
</svg>
