<svg width="644" height="287" viewBox="0 0 644 287" fill="none" xmlns="http://www.w3.org/2000/svg">
<path d="M398.768 0.09729H223.941V108.444H398.768V0.09729Z" fill="#E5E5E5"/>
<path d="M393.768 13.6853H228.939V54.9878H393.768V13.6853Z" fill="white"/>
<path d="M393.768 60.7242H228.939V102.027H393.768V60.7242Z" fill="#682AE9"/>
<path d="M398.693 0H223.865V7.18711H398.693V0Z" fill="#3F3D56"/>
<path d="M229.384 5.00644C230.145 5.00644 230.761 4.41005 230.761 3.67436C230.761 2.93868 230.145 2.34229 229.384 2.34229C228.624 2.34229 228.008 2.93868 228.008 3.67436C228.008 4.41005 228.624 5.00644 229.384 5.00644Z" fill="white"/>
<path d="M234.61 5.00644C235.37 5.00644 235.986 4.41005 235.986 3.67436C235.986 2.93868 235.37 2.34229 234.61 2.34229C233.849 2.34229 233.233 2.93868 233.233 3.67436C233.233 4.41005 233.849 5.00644 234.61 5.00644Z" fill="white"/>
<path d="M239.835 5.00644C240.595 5.00644 241.211 4.41005 241.211 3.67436C241.211 2.93868 240.595 2.34229 239.835 2.34229C239.075 2.34229 238.458 2.93868 238.458 3.67436C238.458 4.41005 239.075 5.00644 239.835 5.00644Z" fill="white"/>
<path d="M341.999 26.6653H286.889V29.1866H341.999V26.6653Z" fill="#CBCBCB"/>
<path d="M341.999 33.2206H286.889V35.7419H341.999V33.2206Z" fill="#CBCBCB"/>
<path d="M341.999 39.776H286.889V42.2973H341.999V39.776Z" fill="#CBCBCB"/>
<path d="M282.409 29.6666C283.348 29.6666 284.109 28.9299 284.109 28.0212C284.109 27.1124 283.348 26.3757 282.409 26.3757C281.47 26.3757 280.709 27.1124 280.709 28.0212C280.709 28.9299 281.47 29.6666 282.409 29.6666Z" fill="#CBCBCB"/>
<path d="M338.908 73.5593H283.799V76.0806H338.908V73.5593Z" fill="white"/>
<path d="M338.908 80.1147H283.799V82.6361H338.908V80.1147Z" fill="white"/>
<path d="M338.908 86.6703H283.799V89.1916H338.908V86.6703Z" fill="white"/>
<path d="M275.774 76.075C276.713 76.075 277.475 75.3383 277.475 74.4295C277.475 73.5208 276.713 72.7841 275.774 72.7841C274.835 72.7841 274.074 73.5208 274.074 74.4295C274.074 75.3383 274.835 76.075 275.774 76.075Z" fill="white"/>
<path d="M643.454 65.1143H265.263V244.572H643.454V65.1143Z" fill="#E6E6E6"/>
<path d="M632.64 80.5031H276.078V230.23H632.64V80.5031Z" fill="white"/>
<path d="M643.293 54.7458H265.102V70.8125H643.293V54.7458Z" fill="#682AE9"/>
<path d="M277.042 67.1715C278.686 67.1715 280.02 65.8382 280.02 64.1936C280.02 62.5489 278.686 61.2157 277.042 61.2157C275.397 61.2157 274.064 62.5489 274.064 64.1936C274.064 65.8382 275.397 67.1715 277.042 67.1715Z" fill="white"/>
<path d="M288.345 67.1715C289.989 67.1715 291.323 65.8382 291.323 64.1936C291.323 62.5489 289.989 61.2157 288.345 61.2157C286.7 61.2157 285.367 62.5489 285.367 64.1936C285.367 65.8382 286.7 67.1715 288.345 67.1715Z" fill="white"/>
<path d="M299.648 67.1715C301.293 67.1715 302.626 65.8382 302.626 64.1936C302.626 62.5489 301.293 61.2157 299.648 61.2157C298.004 61.2157 296.671 62.5489 296.671 64.1936C296.671 65.8382 298.004 67.1715 299.648 67.1715Z" fill="white"/>
<path d="M615.137 199.906H438.344C438.197 199.906 438.057 199.848 437.953 199.744C437.849 199.64 437.791 199.5 437.791 199.353V114.616C437.791 114.469 437.849 114.328 437.953 114.225C438.057 114.121 438.197 114.063 438.344 114.063C438.491 114.063 438.632 114.121 438.735 114.225C438.839 114.328 438.897 114.469 438.897 114.616V198.8H615.137C615.284 198.8 615.425 198.858 615.528 198.962C615.632 199.065 615.69 199.206 615.69 199.353C615.69 199.5 615.632 199.64 615.528 199.744C615.425 199.848 615.284 199.906 615.137 199.906V199.906Z" fill="#3F3D56"/>
<path d="M476.117 193.82H460.037C459.602 193.819 459.184 193.646 458.876 193.338C458.568 193.03 458.395 192.613 458.395 192.178V170.011C458.395 169.576 458.568 169.158 458.876 168.85C459.184 168.543 459.602 168.369 460.037 168.369H476.117C476.553 168.369 476.97 168.543 477.278 168.85C477.586 169.158 477.759 169.576 477.76 170.011V192.178C477.759 192.613 477.586 193.03 477.278 193.338C476.97 193.646 476.553 193.819 476.117 193.82Z" fill="#682AE9"/>
<path d="M505.441 193.82H489.361C488.926 193.82 488.508 193.646 488.2 193.338C487.892 193.031 487.719 192.613 487.719 192.178V148.987C487.719 148.551 487.892 148.134 488.2 147.826C488.508 147.518 488.926 147.345 489.361 147.344H505.441C505.876 147.345 506.294 147.518 506.602 147.826C506.91 148.134 507.083 148.551 507.083 148.987V192.178C507.083 192.613 506.91 193.031 506.602 193.338C506.294 193.646 505.876 193.82 505.441 193.82Z" fill="#682AE9"/>
<path d="M534.765 193.82H518.685C518.25 193.819 517.832 193.646 517.524 193.338C517.216 193.03 517.043 192.613 517.043 192.178V170.011C517.043 169.576 517.216 169.158 517.524 168.85C517.832 168.543 518.25 168.369 518.685 168.369H534.765C535.2 168.369 535.618 168.543 535.926 168.85C536.234 169.158 536.407 169.576 536.407 170.011V192.178C536.407 192.613 536.234 193.03 535.926 193.338C535.618 193.646 535.2 193.819 534.765 193.82Z" fill="#682AE9"/>
<path d="M564.089 193.82H548.009C547.583 193.829 547.172 193.669 546.864 193.375C546.556 193.081 546.377 192.677 546.366 192.252V140.613C546.377 140.187 546.556 139.783 546.864 139.49C547.172 139.196 547.583 139.036 548.009 139.045H564.089C564.514 139.036 564.926 139.196 565.234 139.49C565.542 139.783 565.721 140.187 565.731 140.613V192.252C565.721 192.677 565.542 193.081 565.234 193.375C564.926 193.669 564.514 193.829 564.089 193.82Z" fill="#682AE9"/>
<path d="M593.413 193.82H577.333C576.897 193.819 576.48 193.646 576.172 193.338C575.864 193.03 575.691 192.613 575.69 192.178V125.749C575.691 125.313 575.864 124.896 576.172 124.588C576.48 124.28 576.897 124.107 577.333 124.106H593.413C593.848 124.107 594.266 124.28 594.574 124.588C594.881 124.896 595.055 125.313 595.055 125.749V192.178C595.055 192.613 594.881 193.03 594.574 193.338C594.266 193.646 593.848 193.819 593.413 193.82Z" fill="#682AE9"/>
<path d="M468.077 161.729C469.911 161.729 471.397 160.243 471.397 158.41C471.397 156.576 469.911 155.09 468.077 155.09C466.244 155.09 464.757 156.576 464.757 158.41C464.757 160.243 466.244 161.729 468.077 161.729Z" fill="#3F3D56"/>
<path d="M497.401 140.152C499.234 140.152 500.721 138.665 500.721 136.832C500.721 134.998 499.234 133.512 497.401 133.512C495.568 133.512 494.081 134.998 494.081 136.832C494.081 138.665 495.568 140.152 497.401 140.152Z" fill="#3F3D56"/>
<path d="M526.725 161.729C528.558 161.729 530.045 160.243 530.045 158.41C530.045 156.576 528.558 155.09 526.725 155.09C524.892 155.09 523.405 156.576 523.405 158.41C523.405 160.243 524.892 161.729 526.725 161.729Z" fill="#3F3D56"/>
<path d="M556.049 129.639C557.882 129.639 559.369 128.153 559.369 126.32C559.369 124.486 557.882 123 556.049 123C554.215 123 552.729 124.486 552.729 126.32C552.729 128.153 554.215 129.639 556.049 129.639Z" fill="#3F3D56"/>
<path d="M585.373 117.467C587.206 117.467 588.693 115.981 588.693 114.147C588.693 112.314 587.206 110.828 585.373 110.828C583.539 110.828 582.053 112.314 582.053 114.147C582.053 115.981 583.539 117.467 585.373 117.467Z" fill="#3F3D56"/>
<path d="M526.795 159.154L497.401 137.137L468.409 158.853L467.745 157.967L497.401 135.754L526.655 157.666L555.726 125.854L555.842 125.806L585.166 113.991L585.58 115.018L556.373 126.785L526.795 159.154Z" fill="#3F3D56"/>
<path d="M366.601 98.804H316.384V102.578H366.601V98.804Z" fill="#E6E6E6"/>
<path d="M393.93 109.884H316.384V113.659H393.93V109.884Z" fill="#682AE9"/>
<path d="M380.389 120.437H317.19V124.211H380.389V120.437Z" fill="#E6E6E6"/>
<path d="M353.278 132.016H316.384V135.79H353.278V132.016Z" fill="#E6E6E6"/>
<path d="M372.067 143.326H316.384V147.1H372.067V143.326Z" fill="#682AE9"/>
<path d="M299.644 97.6166H293.495V103.766H299.644V97.6166Z" fill="#E6E6E6"/>
<path d="M299.644 108.697H293.495V114.846H299.644V108.697Z" fill="#682AE9"/>
<path d="M299.644 119.25H293.495V125.399H299.644V119.25Z" fill="#E6E6E6"/>
<path d="M299.644 130.829H293.495V136.978H299.644V130.829Z" fill="#E6E6E6"/>
<path d="M299.644 142.138H293.495V148.287H299.644V142.138Z" fill="#682AE9"/>
<path d="M366.601 154.707H316.384V158.481H366.601V154.707Z" fill="#E6E6E6"/>
<path d="M393.93 165.787H316.384V169.562H393.93V165.787Z" fill="#682AE9"/>
<path d="M380.389 176.34H317.19V180.114H380.389V176.34Z" fill="#E6E6E6"/>
<path d="M353.278 187.918H316.384V191.693H353.278V187.918Z" fill="#E6E6E6"/>
<path d="M372.067 199.229H316.384V203.003H372.067V199.229Z" fill="#E6E6E6"/>
<path d="M299.644 153.519H293.495V159.668H299.644V153.519Z" fill="#E6E6E6"/>
<path d="M299.644 164.6H293.495V170.749H299.644V164.6Z" fill="#682AE9"/>
<path d="M299.644 175.153H293.495V181.302H299.644V175.153Z" fill="#E6E6E6"/>
<path d="M299.644 186.731H293.495V192.88H299.644V186.731Z" fill="#E6E6E6"/>
<path d="M299.644 198.041H293.495V204.19H299.644V198.041Z" fill="#E6E6E6"/>
<path d="M1.19883 265.38C3.04066 266.027 5.01819 266.19 6.9409 265.851C8.86361 265.512 10.6667 264.684 12.1765 263.447C16.0214 260.221 17.2271 254.907 18.2077 249.986L21.1089 235.428L15.035 239.609C10.6667 242.616 6.20024 245.719 3.17594 250.075C0.151638 254.43 -1.16777 260.375 1.26145 265.088" fill="#E6E6E6"/>
<path d="M7.6395 275.083C8.4293 276.284 9.51509 277.261 10.7922 277.92C12.0693 278.579 13.4948 278.898 14.9311 278.847C18.6233 278.671 21.7001 276.096 24.4696 273.651L32.6629 266.419L27.2405 266.159C23.3409 265.973 19.3407 265.798 15.6265 267.001C11.9123 268.205 8.48689 271.097 7.80783 274.94" fill="#E6E6E6"/>
<path d="M299.68 180.878H175.586C174.595 180.877 173.645 180.483 172.944 179.783C172.244 179.082 171.849 178.132 171.848 177.142V135.291C171.849 134.3 172.244 133.351 172.944 132.65C173.645 131.95 174.595 131.555 175.586 131.554H299.68C300.671 131.555 301.621 131.95 302.322 132.65C303.022 133.351 303.417 134.3 303.418 135.291V177.142C303.417 178.132 303.022 179.082 302.322 179.783C301.621 180.483 300.671 180.877 299.68 180.878Z" fill="#F1F1F1"/>
<path d="M224.177 142.764H191.285V146.501H224.177V142.764Z" fill="#682AE9"/>
<path d="M267.535 147.248C268.774 147.248 269.778 146.245 269.778 145.006C269.778 143.768 268.774 142.764 267.535 142.764C266.297 142.764 265.292 143.768 265.292 145.006C265.292 146.245 266.297 147.248 267.535 147.248Z" fill="#682AE9"/>
<path d="M275.011 147.248C276.249 147.248 277.253 146.245 277.253 145.006C277.253 143.768 276.249 142.764 275.011 142.764C273.772 142.764 272.768 143.768 272.768 145.006C272.768 146.245 273.772 147.248 275.011 147.248Z" fill="#682AE9"/>
<path d="M282.486 147.248C283.725 147.248 284.729 146.245 284.729 145.006C284.729 143.768 283.725 142.764 282.486 142.764C281.248 142.764 280.244 143.768 280.244 145.006C280.244 146.245 281.248 147.248 282.486 147.248Z" fill="#682AE9"/>
<path d="M299.68 233.939H175.586C174.595 233.938 173.645 233.544 172.944 232.843C172.244 232.143 171.849 231.193 171.848 230.203V188.352C171.849 187.361 172.244 186.411 172.944 185.711C173.645 185.01 174.595 184.616 175.586 184.615H299.68C300.671 184.616 301.621 185.01 302.322 185.711C303.022 186.411 303.417 187.361 303.418 188.352V230.203C303.417 231.193 303.022 232.143 302.322 232.843C301.621 233.544 300.671 233.938 299.68 233.939Z" fill="#F1F1F1"/>
<path d="M224.177 195.825H191.285V199.562H224.177V195.825Z" fill="#682AE9"/>
<path d="M267.535 200.309C268.774 200.309 269.778 199.305 269.778 198.067C269.778 196.829 268.774 195.825 267.535 195.825C266.297 195.825 265.292 196.829 265.292 198.067C265.292 199.305 266.297 200.309 267.535 200.309Z" fill="#682AE9"/>
<path d="M275.011 200.309C276.249 200.309 277.253 199.305 277.253 198.067C277.253 196.829 276.249 195.825 275.011 195.825C273.772 195.825 272.768 196.829 272.768 198.067C272.768 199.305 273.772 200.309 275.011 200.309Z" fill="#682AE9"/>
<path d="M282.486 200.309C283.725 200.309 284.729 199.305 284.729 198.067C284.729 196.829 283.725 195.825 282.486 195.825C281.248 195.825 280.244 196.829 280.244 198.067C280.244 199.305 281.248 200.309 282.486 200.309Z" fill="#682AE9"/>
<path d="M299.68 287H175.586C174.595 286.999 173.645 286.605 172.944 285.904C172.244 285.204 171.849 284.254 171.848 283.263V241.413C171.849 240.422 172.244 239.472 172.944 238.772C173.645 238.071 174.595 237.677 175.586 237.676H299.68C300.671 237.677 301.621 238.071 302.322 238.772C303.022 239.472 303.417 240.422 303.418 241.413V283.263C303.417 284.254 303.022 285.204 302.322 285.904C301.621 286.605 300.671 286.999 299.68 287Z" fill="#F1F1F1"/>
<path d="M224.177 248.886H191.285V252.622H224.177V248.886Z" fill="#682AE9"/>
<path d="M267.535 253.37C268.774 253.37 269.778 252.366 269.778 251.128C269.778 249.89 268.774 248.886 267.535 248.886C266.297 248.886 265.292 249.89 265.292 251.128C265.292 252.366 266.297 253.37 267.535 253.37Z" fill="#682AE9"/>
<path d="M275.011 253.37C276.249 253.37 277.253 252.366 277.253 251.128C277.253 249.89 276.249 248.886 275.011 248.886C273.772 248.886 272.768 249.89 272.768 251.128C272.768 252.366 273.772 253.37 275.011 253.37Z" fill="#682AE9"/>
<path d="M282.486 253.37C283.725 253.37 284.729 252.366 284.729 251.128C284.729 249.89 283.725 248.886 282.486 248.886C281.248 248.886 280.244 249.89 280.244 251.128C280.244 252.366 281.248 253.37 282.486 253.37Z" fill="#682AE9"/>
<path d="M252.898 90.6876L252.761 90.5863L252.757 90.5838C252.58 90.4524 252.379 90.3571 252.165 90.3034C251.951 90.2497 251.729 90.2386 251.511 90.2708C251.293 90.303 251.083 90.3779 250.894 90.4911C250.705 90.6043 250.54 90.7536 250.408 90.9306L222.476 128.527H219.403V127.806C219.403 127.627 219.333 127.457 219.207 127.331C219.081 127.205 218.91 127.134 218.732 127.134H216.898C216.72 127.134 216.549 127.205 216.423 127.331C216.298 127.457 216.227 127.627 216.227 127.806V128.527H215.166V127.806C215.166 127.627 215.095 127.457 214.969 127.331C214.843 127.205 214.672 127.134 214.494 127.134H212.661C212.482 127.134 212.312 127.205 212.186 127.331C212.06 127.457 211.989 127.627 211.989 127.806V128.527H210.931V127.806C210.931 127.627 210.86 127.457 210.734 127.331C210.609 127.205 210.438 127.134 210.26 127.134H208.426C208.248 127.134 208.077 127.205 207.951 127.331C207.825 127.457 207.755 127.627 207.755 127.806V128.527H206.693V127.806C206.693 127.627 206.623 127.457 206.497 127.331C206.371 127.205 206.2 127.134 206.022 127.134H204.188C204.01 127.134 203.839 127.205 203.713 127.331C203.588 127.457 203.517 127.627 203.517 127.806V128.527H202.459V127.806C202.459 127.627 202.388 127.457 202.262 127.331C202.136 127.205 201.966 127.134 201.787 127.134H199.954C199.866 127.134 199.778 127.151 199.697 127.185C199.615 127.219 199.541 127.268 199.479 127.331C199.417 127.393 199.367 127.467 199.333 127.549C199.3 127.63 199.282 127.717 199.282 127.806V128.527H198.221V127.806C198.221 127.627 198.15 127.457 198.024 127.331C197.899 127.205 197.728 127.134 197.55 127.134H195.716C195.538 127.134 195.367 127.205 195.241 127.331C195.115 127.457 195.045 127.627 195.045 127.806V128.527H193.983V127.806C193.983 127.627 193.913 127.457 193.787 127.331C193.661 127.205 193.49 127.134 193.312 127.134H191.478C191.3 127.134 191.129 127.205 191.003 127.331C190.878 127.457 190.807 127.627 190.807 127.806V128.527H189.749V127.806C189.749 127.627 189.678 127.457 189.552 127.331C189.426 127.205 189.256 127.134 189.077 127.134H187.244C187.066 127.134 186.895 127.205 186.769 127.331C186.643 127.457 186.572 127.627 186.572 127.806V128.527H185.511V127.806C185.511 127.627 185.44 127.457 185.314 127.331C185.189 127.205 185.018 127.134 184.84 127.134H183.006C182.828 127.134 182.657 127.205 182.531 127.331C182.405 127.457 182.335 127.627 182.335 127.806V128.527H181.277V127.806C181.277 127.627 181.206 127.457 181.08 127.331C180.954 127.205 180.783 127.134 180.605 127.134H178.772C178.594 127.134 178.423 127.205 178.297 127.331C178.171 127.457 178.1 127.627 178.1 127.806V128.527H176.77C176.55 128.527 176.332 128.571 176.128 128.655C175.924 128.739 175.739 128.863 175.583 129.019C175.427 129.175 175.304 129.36 175.219 129.563C175.135 129.767 175.091 129.985 175.091 130.206V131.807C175.091 132.028 175.135 132.246 175.219 132.449C175.304 132.653 175.427 132.838 175.583 132.994C175.739 133.15 175.924 133.273 176.128 133.358C176.332 133.442 176.55 133.486 176.77 133.486H222.198C222.773 133.486 223.331 133.287 223.777 132.924C224.223 132.561 224.531 132.055 224.647 131.492L224.665 131.505L253.242 93.0392L253.245 93.0359C253.51 92.6785 253.623 92.2303 253.558 91.79C253.493 91.3496 253.255 90.9531 252.898 90.6876Z" fill="#3F3D56"/>
<path d="M76.371 272.743L82.0137 275.63L95.8365 255.246L87.5089 250.985L76.371 272.743Z" fill="#FFB7B7"/>
<path d="M75.8744 270.165L86.9868 275.85L86.9873 275.851C88.8653 276.812 90.2846 278.479 90.933 280.486C91.5813 282.493 91.4056 284.676 90.4445 286.553L90.3268 286.783L72.1326 277.475L75.8744 270.165Z" fill="#2F2E41"/>
<path d="M141.54 280.641H147.879L150.895 256.199H141.54L141.54 280.641Z" fill="#FFB7B7"/>
<path d="M139.924 278.572L152.407 278.572H152.407C154.517 278.572 156.54 279.41 158.032 280.901C159.524 282.392 160.362 284.415 160.362 286.524V286.783L139.924 286.783L139.924 278.572Z" fill="#2F2E41"/>
<path d="M111.891 81.2756C111.891 81.2756 107.646 78.0245 107.646 85.9656L106.976 112.208L114.46 136.998L118.817 128.958L117.029 111.538L111.891 81.2756Z" fill="#2F2E41"/>
<path d="M157.296 153.052C157.296 153.052 162.218 177.015 155.984 196.681L152.538 272.295L139.905 271.311L135.475 215.216L131.209 187.332L122.35 212.755L93.1452 266.554L79.6916 256.057C79.6916 256.057 94.6004 215.389 105.614 206.851L111.138 143.954L157.296 153.052Z" fill="#2F2E41"/>
<path d="M154.961 41.7433C158.777 34.7648 156.211 26.015 149.231 22.2002C142.25 18.3854 133.498 20.9501 129.682 27.9287C125.866 34.9072 128.431 43.657 135.412 47.4718C142.393 51.2866 151.145 48.7219 154.961 41.7433Z" fill="#FFB7B7"/>
<path d="M141.302 37.8902C143.029 38.1148 144.331 36.3486 144.935 34.7159C145.539 33.0832 146 31.1825 147.501 30.3005C149.552 29.0956 152.176 30.5448 154.522 30.1472C157.171 29.6983 158.893 26.8919 159.028 24.2094C159.163 21.527 158.095 18.947 157.048 16.4738L156.682 19.5474C156.731 18.5057 156.511 17.4689 156.045 16.5361C155.578 15.6033 154.88 14.8057 154.017 14.2197L154.489 18.7298C154.389 18.1076 154.166 17.5113 153.835 16.9751C153.503 16.439 153.069 15.9735 152.558 15.6055C152.046 15.2375 151.466 14.9742 150.852 14.8306C150.239 14.687 149.602 14.6661 148.98 14.7689L149.055 17.4562C145.995 17.0925 142.909 16.7283 139.841 17.0054C136.772 17.2825 133.682 18.253 131.357 20.2732C127.878 23.2952 126.607 28.2712 127.034 32.8587C127.46 37.4462 129.355 41.7558 131.329 45.919C131.826 46.9664 132.513 48.1484 133.664 48.2818C134.699 48.4017 135.646 47.5368 135.968 46.5462C136.216 45.5298 136.206 44.4676 135.94 43.4557C135.649 41.9095 135.282 40.329 135.556 38.7795C135.829 37.2301 136.945 35.6989 138.507 35.509C140.069 35.3191 141.668 37.1045 140.917 38.4871L141.302 37.8902Z" fill="#2F2E41"/>
<path d="M158.188 159.46L110.104 156.359L113.724 141.37L157.67 151.19L158.188 159.46Z" fill="#CBCBCB"/>
<path d="M128.535 54.475L131.55 50.2891C131.55 50.2891 134.921 51.4343 143.949 55.9267L144.587 59.8485L160.258 156.205L131.774 154.976L124.017 154.811L121.479 149.123L118.349 154.691L110.774 154.53L103.067 150.063L110.662 126.836L113.12 105.619L109.322 85.6304C109.322 85.6304 104.543 67.2753 122.95 57.3784L128.535 54.475Z" fill="#2F2E41"/>
<path d="M192.735 127.417C192.037 127.595 191.309 127.617 190.602 127.482C189.895 127.348 189.226 127.06 188.643 126.639C188.059 126.218 187.575 125.674 187.224 125.046C186.873 124.418 186.664 123.72 186.612 123.003L169.714 118.478L176.512 112.443L191.517 117.666C192.729 117.658 193.901 118.095 194.812 118.894C195.722 119.693 196.308 120.799 196.459 122.001C196.609 123.203 196.313 124.418 195.626 125.416C194.94 126.415 193.911 127.127 192.735 127.417V127.417Z" fill="#FFB7B7"/>
<path d="M185.166 124.863C184.811 125.056 184.419 125.173 184.015 125.205C183.612 125.237 183.206 125.183 182.825 125.048L155.026 114.501C148.244 112.097 142.566 107.313 139.048 101.038L127.456 80.3639C126.642 79.4555 126.015 78.3955 125.611 77.2447C125.207 76.0938 125.034 74.8746 125.102 73.6569C125.17 72.4392 125.478 71.2468 126.008 70.148C126.537 69.0493 127.278 68.0657 128.188 67.2535C129.098 66.4414 130.16 65.8166 131.312 65.415C132.464 65.0134 133.684 64.8429 134.902 64.9131C136.119 64.9833 137.312 65.2929 138.41 65.8243C139.508 66.3556 140.49 67.0982 141.301 68.0095L161.366 99.8032L186.618 114.604C187.113 114.928 187.496 115.397 187.716 115.946C187.936 116.496 187.982 117.1 187.847 117.676L186.591 122.996C186.456 123.566 186.151 124.082 185.715 124.474C185.548 124.625 185.364 124.755 185.166 124.863Z" fill="#2F2E41"/>
</svg>
